<?xml version="1.0" encoding="UTF-8"?>
<svg xmlns="http://www.w3.org/2000/svg" viewBox="0 0 180 252">
  <defs>
    <style>
      .cls-1 {
        fill: #fff;
      }

      .cls-2 {
        fill: #662d91;
      }

      .cls-3 {
        fill: #93278f;
      }
    </style>
  </defs>
  <g id="Layer_6" data-name="Layer 6">
    <g>
      <path class="cls-1" d="M7.2,251.5c-3.69,0-6.7-3.01-6.7-6.7V7.2C.5,3.51,3.51,.5,7.2,.5H172.8c3.69,0,6.7,3.01,6.7,6.7V244.8c0,2.5-1.38,4.77-3.6,5.94-.25,.08-.57,.19-.9,.29-.8,.25-1.6,.37-2.34,.47H7.2Z"/>
      <path d="M172.8,1c3.42,0,6.2,2.78,6.2,6.2V244.8c0,2.29-1.25,4.38-3.27,5.46-.29,.1-.58,.2-.88,.29-.76,.23-1.52,.35-2.23,.45H7.2c-3.42,0-6.2-2.78-6.2-6.2V7.2C1,3.78,3.78,1,7.2,1H172.8m0-1H7.2C3.22,0,0,3.22,0,7.2V244.8c0,3.98,3.22,7.2,7.2,7.2H172.69c.81-.11,1.62-.24,2.45-.49,.34-.1,.67-.21,.99-.33,2.3-1.2,3.87-3.61,3.87-6.38V7.2c0-3.98-3.22-7.2-7.2-7.2h0Z"/>
    </g>
  </g>
  <g id="Layer_5" data-name="Layer 5">
    <path class="cls-2" d="M175.15,251.51c.33-.1,.65-.21,.97-.32l-108.11-99.19,51-28-23-5-66,26.8,67,106.2h75.69c.81-.11,1.62-.24,2.45-.49Z"/>
    <polygon class="cls-3" points="118 142 118.94 126 68 152 83.13 165.91 118 142"/>
    <path class="cls-3" d="M97,252L30,148.34v21.61l38,82.05"/>
  </g>
  <g id="Layer_1" data-name="Layer 1">
    <g>
      <path d="M14.15,53.33c.91,0,1.37,.23,1.37,.7s-1.24,.72-3.71,.72-3.71-.24-3.71-.72,.53-.7,1.58-.7,1.56-1.58,1.56-4.75-.49-4.75-1.46-4.75-1.48-.24-1.48-.72,.75-.7,2.24-.7,2.22,1.82,2.22,5.45,.46,5.47,1.39,5.47Z"/>
      <path d="M23.6,46.77l1.67,1.03,.99,1.86v2.43l-1.08,1.86-1.79,.99h-2.07l-1.82-.91-1.14-1.69c-.05-.76,.18-1.14,.68-1.14s.8,.35,.87,1.06l1.41,1.2h1.63l1.1-.61,.68-1.18v-1.6l-.65-1.2-1.04-.63h-1.39l-1.22,.7c-.24,.58-.6,.82-1.08,.72-.15-.04-.28-.24-.4-.6-.11-.36-.18-.82-.21-1.37-.03-.55,0-1.13,.1-1.75,.1-.61,.27-1.19,.51-1.73,.25-.54,.59-.98,1.04-1.32,.44-.34,1-.51,1.67-.51,2.01,0,3.02,.23,3.02,.7s-.77,.72-2.32,.72-2.35,.77-2.45,2.32c-.05,.77-.06,1.28-.02,1.52s.11,.22,.21-.06l1.27-.84h1.81Z"/>
    </g>
    <g>
      <path d="M166.39,201.22c-.91,0-1.37-.23-1.37-.7s1.24-.72,3.71-.72,3.71,.24,3.71,.72-.53,.7-1.58,.7-1.56,1.58-1.56,4.75,.49,4.75,1.46,4.75,1.48,.24,1.48,.72-.75,.7-2.24,.7-2.22-1.82-2.22-5.45-.46-5.47-1.39-5.47Z"/>
      <path d="M156.95,207.78l-1.67-1.03-.99-1.86v-2.43l1.08-1.86,1.79-.99h2.07l1.82,.91,1.14,1.69c.05,.76-.18,1.14-.68,1.14s-.8-.35-.87-1.06l-1.41-1.2h-1.63l-1.1,.61-.68,1.18v1.6l.65,1.2,1.04,.63h1.39l1.22-.7c.24-.58,.6-.82,1.08-.72,.15,.04,.28,.24,.4,.6,.11,.36,.18,.82,.21,1.37,.03,.55,0,1.13-.1,1.75-.09,.61-.27,1.19-.51,1.73-.25,.54-.59,.98-1.04,1.32-.44,.34-1,.51-1.67,.51-2.01,0-3.02-.23-3.02-.7s.77-.72,2.32-.72,2.35-.77,2.45-2.32c.05-.77,.06-1.28,.02-1.52s-.11-.22-.21,.06l-1.27,.84h-1.8Z"/>
    </g>
  </g>
  <g id="Layer_3" data-name="Layer 3">
    <path d="M20.78,34.32h-7.85c.04-.1,.07-.18,.11-.26,.55-.92,1.11-1.83,1.64-2.76,.5-.88,.92-1.79,1.05-2.81,.02-.18,.03-.36,.05-.59-.11,.06-.17,.09-.23,.12-1.55,.88-3.21,1.35-4.99,1.21-2.01-.16-3.7-.94-4.83-2.7-.6-.94-.83-2-.77-3.11,.1-1.77,.82-3.3,1.79-4.74,.74-1.11,1.66-2.07,2.57-3.04,2.4-2.58,4.64-5.3,6.72-8.14,.22-.3,.44-.59,.68-.9,.35,.44,.68,.86,1,1.28,2.12,2.74,4.32,5.4,6.64,7.96,.89,.98,1.77,1.96,2.44,3.11,.64,1.09,1.11,2.24,1.27,3.49,.36,2.9-1.15,5.34-3.85,6.27-1.92,.66-3.8,.43-5.64-.36-.3-.13-.59-.28-.94-.45,.04,.29,.07,.53,.12,.77,.25,1.15,.82,2.15,1.44,3.14,.48,.76,.96,1.52,1.45,2.28,.04,.06,.07,.12,.12,.22Z"/>
    <path d="M159.58,218.86h7.85c-.04,.1-.07,.18-.11,.26-.55,.92-1.11,1.83-1.64,2.76-.5,.88-.92,1.79-1.05,2.81-.02,.18-.03,.36-.05,.59,.11-.06,.17-.09,.23-.12,1.55-.88,3.21-1.35,4.99-1.21,2.01,.16,3.7,.94,4.83,2.7,.6,.94,.83,2,.77,3.11-.1,1.77-.82,3.3-1.79,4.74-.74,1.11-1.66,2.07-2.57,3.04-2.4,2.58-4.64,5.3-6.72,8.14-.22,.3-.44,.59-.68,.9-.35-.44-.68-.86-1-1.28-2.12-2.74-4.32-5.4-6.64-7.96-.89-.98-1.77-1.96-2.44-3.11-.64-1.09-1.11-2.24-1.27-3.49-.36-2.9,1.15-5.34,3.85-6.27,1.92-.66,3.8-.43,5.64,.36,.3,.13,.59,.28,.94,.45-.04-.29-.07-.53-.12-.77-.25-1.15-.82-2.15-1.44-3.14-.48-.76-.96-1.52-1.45-2.28-.04-.06-.07-.12-.12-.22Z"/>
    <path class="cls-3" d="M92,121s2.23,2,4.61,0v-4.02h-4.61v4.02Z"/>
    <path class="cls-2" d="M92,116.98s2.23,1.98,4.61,0c0,0-1.61-2.02-4.61,0Z"/>
  </g>
</svg>