<?xml version="1.0" encoding="UTF-8"?>
<svg id="Layer_1" data-name="Layer 1" xmlns="http://www.w3.org/2000/svg" viewBox="0 0 1013.04 1126.5">
  <defs>
    <style>
      .cls-1 {
        fill: #fff;
      }
    </style>
  </defs>
  <path d="M0,1126.5m1013.04,0M182.97,939c-74.96-55.77,18.59-521.13,18.59-521.13,2.85-6.36,5.69-12.74,8.92-18.92,6.08-11.63,12.51-23.07,18.65-34.67,2.77-5.24,6.12-10.01,10-14.47,4.31-4.95,8.36-10.12,12.77-14.97,6.71-7.38,13.12-15.15,20.58-21.7,10.75-9.43,23.88-14.73,37.63-18.41,6.87-1.84,13.76-3.58,20.63-5.37,2.02-.53,3.83-1.2,4.57-3.56,1.55-4.96,5.08-8.43,9.43-10.94,3.97-2.29,6.29-5.55,7.21-9.93,1.85-8.78,7.56-14.64,14.67-19.44,2.12-1.43,4.49-2.2,7.01-1.67,4.13,.87,8.27,1.78,12.28,3.06,2.22,.71,4.05,1.19,6.09-.39,2.34-1.82,5.1-1.98,7.8-.9,3.03,1.22,5.98,2.64,8.97,3.98,2.24,1,4.46,2.05,6.73,2.99,1.74,.72,2.97,.1,3.41-1.74,.45-1.86,.94-3.73,1.12-5.63,.35-3.88,.28-7.76-.04-11.9-1.97,.29-3.41,.5-4.81,.7-2.63-3.31-2.87-3.34-6.14-.77-.21,.17-.38,.39-.57,.59,0,0,.04,.05,.04,.05-.38-1.68-.77-3.36-1.18-5.17-2.84-.25-4.44,1.5-6.06,3.09-1.51,1.49-2.8,1.76-4.58,.29-1.2-.99-2.84-1.46-4.28-2.18-1.32-.66-3.12-1-3.87-2.07-1.9-2.73-4.72-3.42-7.52-4.42-1.97-.7-4.17-1.22-5.12-3.21,2.58-2.95,4.97-5.68,7.36-8.42,.52-.24,1.14-.39,1.52-.77,.19-.2-.05-.83-.1-1.26-.23-.03-.47-.06-.7-.09-.2,.74-.41,1.48-.61,2.22-.91-1.66-1.81-3.31-2.72-4.98-.82-.12-1.65-.24-3.22-.47,3.49-5.35,2.39-10.91,2.7-16.33,.28-4.87,.66-9.84,1.86-14.54,2.43-9.49,5.26-18.89,8.31-28.19,1.95-5.93,4.32-11.76,7.01-17.39,2.24-4.69,3.67-9.33,3.31-14.57-.78-11.51,2.03-22.58,4.99-33.51,1.74-6.43,4.71-12.52,7.03-18.8,2.83-7.66,6.82-14.63,12.26-20.7,2.31-2.59,4.6-5.03,4.57-8.82,0-.89,.56-1.82,.97-2.68,5.75-12.29,15.07-19.88,28.71-21.8,1.76-.25,3.58-.44,5.21-1.08,9.37-3.67,19.21-5.4,29.05-7.01,4.81-.79,9.95-1.45,14.66-.61,9.66,1.72,19.34,3.71,28.37,7.91,2.72,1.27,5.55,2.34,8.42,3.21,9.74,2.97,17,9.18,22.68,17.37,4.54,6.55,6.4,14.19,7.9,21.85,1.39,7.1,2.35,14.28,3.43,21.44,.52,3.45,1.71,6.16,5.45,7.37,2.84,.92,5.53,2.36,8.17,3.79,1.66,.9,3.29,2.02,4.61,3.37,2.31,2.38,1.92,5.47-.78,7.41-.87,.62-1.92,1.11-2.96,1.34-2.89,.64-5.83,1.12-8.96,1.7-1.21,2.4-.2,4.07,1.93,5.7,4.47,3.41,4.46,4.72,.98,8.88-.78,.93-1.24,2.42-1.24,3.65-.02,6.42-.29,12.86,1.34,19.17,.39,1.51,.49,3.28-1.17,3.98-2.3,.97-3.34,2.95-4.24,4.58-1.81-.3-3.24-.53-4.67-.77,2.06-1.73,4.1-3.49,6.18-5.18,1.71-1.39,2.15-2.82,1.1-4.11-1.17-1.44-2.51-1.35-3.92-.33-.76,.55-1.53,1.12-2.34,1.59-2.59,1.51-2.95,4.08-3,6.67,0,.5,1.18,1.02,1.81,1.53-1.87,2.78-4.61,4.98-4.93,8.76-.29,3.37-1.23,6.67-1.75,10.03-.48,3.14-2.11,6.36,.38,9.27-.83,1.26-2.02,2.3-2.22,3.5-.79,4.79-2.96,9.43-1.71,14.5,.22,.91-.51,2.02-.66,3.06-.12,.85-.04,1.72-.05,2.59,.77,0,1.6,.2,2.29-.03,4.19-1.37,6.42-4.74,6.69-9.79,.09-1.61,.2-3.24,.57-4.8,.57-2.41,2.68-4.57,.99-7.33-.18-.3,.29-1,.48-1.51,2.78-7.7,5.56-15.4,8.35-23.1,.58-1.6,1.22-3.18,2.02-5.25,.59,.95,.92,1.25,.96,1.59,.77,6.37,1.57,12.73,2.2,19.11,.14,1.46-.25,2.99-.56,4.46-.61,2.9-.59,5.63-.21,8.7,.87,6.97,5.96,11.06,9.26,16.36,.24,.39,.91,.7,1.4,.72,3.8,.18,4.91,3.61,7,5.8,.92,.97,1.37,2.39,2.02,3.57-1.71,.44-4.24,.36-5.42,1.58-2.04,2.1-4.21,3.7-7.19,4.65,1.29,2.49,2.44,4.72,3.43,6.64-1.87,1.61-3.21,2.96-4.75,4.02-1.3,.89-2.8,1.52-4.28,2.11-2.12,.84-4.46,1.26-6.41,2.39-1.88,1.09-3.47,1.28-5.39,.42-1.74-.78-3.58-1.36-5.34-2.1-2.88-1.21-5.26-.72-7.36,1.68-1.34,1.53-2.86,3.04-5.22,2.77-2.6-.3-3.57,1.29-4.34,3.42-2.15,5.91-4.45,11.76-6.61,17.66-.58,1.58-.85,3.28-1.36,5.32,2.34,0,4.11,.24,5.79-.04,6.27-1.05,11.97,.48,17.27,3.69,6.69,4.05,11.54,9.76,9.43,17.85-1.54,5.88,.88,7.88,5.17,10.31,2.7,1.53,5.06,1.95,7.62,.67,1.36-.68,2.47-2,3.47-3.22,5.69-6.97,15.7-6.06,19.66,1.99,1.44,2.93,3.52,5.16,5.87,7.27,3.56,3.21,5.89,7.11,6.93,11.82,.85,3.81,.73,7.57,.08,11.4-.57,3.41-.24,3.62,2.75,4.93,9.26,4.07,18.56,8.05,27.71,12.34,13.39,6.28,24.45,15.53,32.95,27.63,5.34,7.6,10.5,15.36,15.25,23.34,4.89,8.21,9.95,16.46,13.56,25.25,7.83,19.09,14.89,38.49,22.05,57.85,5.88,15.89,11.71,31.81,17.08,47.87,3.85,11.53,6.9,23.32,10.3,35,5.24,17.98,10.8,35.87,14.37,54.29,1.53,7.91,3,15.83,4.61,23.73,1.8,8.85,3.59,17.67,3.56,26.78-.01,3.24,.6,6.54,1.4,9.7,1.25,4.94,2.08,9.86,1.89,14.99-.09,2.28,.18,4.67,.8,6.86,1.62,5.7,2.62,11.43,2.48,17.38-.14,6.04,.52,11.96,2.47,17.76,.94,2.82,1.15,5.89,1.59,8.86,.75,5.13,1.34,10.29,2.13,15.41,0,0,6.28,243.5-16.13,247.31M558.47,172.15c.3,1.13,.6,2.25,.89,3.38-3.08-2.56-3.12-2.79-.96-5.84,2.71-3.83,1.13-7.45-3.55-8.06-2.02-.26-4.06-.36-6.1-.53-5.71-.5-11.45-.77-17.1-1.62-2.71-.41-5.25-1.95-7.86-2.97-.16,.35-.39,.6-.36,.84,.44,4.76,.18,9.28-3.75,12.8-1.09,.98-.8,2.16,.21,3.24,.88,.95,1.6,2.06,2.39,3.09-.15,.28-.29,.57-.44,.85-1.04-.15-2.33,.04-3.06-.51-2.94-2.19-5.01-4.99-5.22-8.86-.05-.94-.16-1.93-.51-2.79-.81-2.05-1.89-2.33-3.81-1.16q-3.17,1.93-5.89-.3c-.5-.41-1.06-.76-1.75-1.26-.68,.92-1.19,1.69-1.78,2.4-.58,.7-1.25,1.33-1.78,1.89-4.74-1.28-4.28-3.72-.89-10.43,.37,.1,.89,.09,1.12,.34,3.34,3.63,7.46,3.4,11.73,2.4,3.28-.76,5.17-3.05,6.05-6.07,.81-2.8-.85-4.66-3.14-6.03-.35-.21-.67-.47-1.01-.71-1.67-1.15-2.46-2.42-1.19-4.47,.43-.7,.26-1.82,.24-2.74-.05-2.04-.54-4.15-.19-6.11,.4-2.21-.1-3.45-2.21-4.04-2.16-.6-4.02,.32-4.97,2.42-1.64,3.65-2.57,7.51-2.32,11.47,.15,2.36-.69,3.72-2.3,5.26-2.23,2.14-4.53,4.48-5.89,7.19-1.51,3.02-2.09,6.52-3.96,9.46l.08-.12c-.27-2.74-.53-5.48-.8-8.25-2.44,.8-4.7,1.86-7.07,2.26-10.2,1.72-20.39,1.59-30.56-.47-4.63-.94-7.75-3.57-10.04-7.66-2.26-4.04-2.97-8.47-4.15-12.81-.49-1.79-1.47-3.46-2.3-5.15-.11-.23-.64-.26-1.2-.47-.1,1.25-.19,2.28-.23,2.83-1.39,.72-2.94,1.01-3.3,1.83-.8,1.83-1.28,3.87,.22,5.81,.71,.92,1.1,2.12,1.53,3.23,1.02,2.65,1.78,5.43,3.02,7.97,.99,2.02,1.96,3.92,1.47,6.21-.41,1.91,.2,3.17,2.06,3.88,.72,.27,1.34,.8,1.91,1.15-.09,4.29-2.52,8.33,.06,12.38,.23,.36-.04,1.06-.09,1.6-.15,1.87-.02,3.82-.52,5.59-1,3.56,1.02,7.69-2.26,10.53q2.13,3.54,1.42,7.77c-.09,.53-.06,1.09,0,1.63,.24,2.56,.56,5.11,.74,7.67,.34,4.74,.63,9.49,.89,14.24,.12,2.28,2.65,4.05,1.37,6.63-.06,.13,.29,.44,.4,.68,1.6,3.39,3.25,6.77,4.77,10.2,.98,2.22,1.81,4.52,2.63,6.81,.22,.61,.26,1.33,.19,1.98-.42,4.28,2.13,6.87,5.25,9.01,2.52,1.72,5.23,3.17,7.84,4.75,.34,.21,.88,.53,.88,.81,0,2.88,3.01,3.67,4.03,5.86,.31,.66,1.38,1.15,2.19,1.36,2.51,.65,5.07,1.14,7.6,1.69-.04,.67-.07,1.33-.11,2,.24-.04,.49-.08,.73-.12-.31-.61-.62-1.23-.93-1.84,1.18-.22,2.35-.45,3.6-.69,.87,1.2,1.64,2.28,2.54,3.53,1.44-.74,2.4-3.79,4.53-1.14,.08,.1,.84-.48,1.3-.52,2.59-.2,5.23-3.18,7.66,.37,1.04-.98,1.9-1.78,2.89-2.7,.64,.57,1.14,1,1.63,1.43-.35,.35-.7,.69-.37,.36-.05,.42,.02-.14,.08-.7,2.28-.15,4.55-.3,6.83-.45l-.16-.05c1.24-.78,2.5-1.52,3.7-2.36,1.42-.99,3.21-1.79,4.07-3.16,.86-1.37,2.03-1.99,3.14-2.92,2.33-1.94,4.9-3.92,3.77-7.64-.48-1.57,.62-2.18,1.75-2.76,.78-.3,1.56-.6,2.34-.89q3.65-1.03,3.88-4.79c2.49,.45,4.97,.9,8.12,1.47,.52-.72,1.52-1.78,2.16-3.03,1.81-3.53,2.74-7.62,6.61-9.77,.32-.18,.68-.61,.71-.96,.41-4.03,4.82-7.09,2.85-11.7-.08-.19,.13-.51,.22-.77,.87-2.66,1.75-5.33,2.63-7.99-.11-.14-.15-.25-.12-.36-.28-1.08-.56-2.15-.84-3.23,2.11,.12,2.7-1.29,3-2.99,.74-1.02,.84-1.8-.36-2.74-2.19-1.71-3.05-5.54-2.05-7.93,1.03-2.47,2.04-4.94,3-7.27-3.1-3.4-3.13-3.73-.61-7.07,.49-.65,1.16-1.2,1.52-1.92,1.52-2.99,3.24-5.96,2.29-9.56,1.17-1.36-.11-2.18-.69-3.15,1.04,.05,2.08,.1,3.12,.15l-.02-.4c-1.03,.09-2.07,.17-3.1,.26Zm255.16,772.62M448.57,96.33c.23,.67,.47,1.34,.77,2.2q1.11-1.59,.87-3.24c.49,.22,1.07,.74,1.45,.62,5.67-1.74,11.3-.39,16.95,.05,2.71,.21,5.43,.4,8.14,.39,2.4-.01,4.23,.71,5.45,2.87,.79,1.41,1.73,2.73,2.67,4.22,1.46-.53,2.7-.98,3.84-1.39,1,1.82,1.5,3.94,2.85,4.98,3.11,2.39,5.49,5.3,7.62,8.48,1.57,2.35,3.72,3.77,6.46,3.67,2.53-.09,5.05-.73,7.57-1.19,.76-.14,1.69-.87,2.19-.62,2.02,1.01,3.01-.6,4.34-1.39-.11,.39-.22,.78-.35,1.16-.48,1.44,.14,2.58,1.45,2.77,.83,.12,1.98-.58,2.66-1.24,.74-.72,1.22-1.78,1.59-2.77,.2-.53,.18-1.42-.15-1.81-.34-.4-1.35-.72-1.76-.5-1.26,.69-2.37,1.65-3.54,2.51,.27-.91,.5-1.84,.84-2.73,.33-.88,1.02-1.72-.59-2.14-.17-.04-.3-1.68,.08-2.16,2.78-3.52,5.64-6.99,8.62-10.34,.55-.62,1.75-.97,2.63-.94,4.38,.17,8.42-2.19,12.91-1.54,2.39,.35,3.93-1.93,2.77-4.09-1.46-2.72-3.49-5.14-5.28-7.69,.23-.2,.47-.4,.7-.6,.76-2.39,1.52-4.78,2.34-7.34-2.85-.97-5.48-2.37-8.25-2.71-7.17-.9-14.39-1.64-21.6-1.83-4.88-.13-9.79,.68-14.67,1.22-16.89,1.88-33.22,6.08-49.63,11.95,3.38,4.48-.46,5.75-3.88,7.83,1.42,.77,2.26,1.22,3.1,1.67-.35,.58-.7,1.15-1.08,1.72-.87,.2-1.74,.39-2.62,.59l.13,.45c.81-.35,1.61-.71,2.42-1.06Zm177.39,380.07c.21,.03,.31,.15,.3,.36l.07-.12c2.61,2.81,3.57,2.65,5.01-.84l.67-2.26c-.55-.93-.97-1.98-1.68-2.75-1.27-1.38-2.85-2.08-4.73-1.12-1.83,.93-1.76,2.7-1.44,4.25,.18,.91,1.18,1.66,1.81,2.48h0Zm-169.25-194.92c.27-1.84-.82-3-2.03-4.11-2.09-1.91-2.42-1.92-5.06-.11-.57-2.79,.65-6.42-3.63-7.48-.39-.1-.48-1.19-.84-1.72-.82-1.19-1.74-2.32-2.61-3.47-1.15-1.97-2.73-3.36-5.13-3.16-.66,.05-1.27,.79-1.9,1.22,.43,.58,.86,1.16,1.29,1.75-.77,2.21-1.11,4.33,1.4,5.82-2.72,2.5-6.78,2.88-8.9,7.2,.63,.38,1.42,.92,2.27,1.33,3.68,1.79,7.23,4.02,11.1,5.22,6.53,2.01,11.09,6.2,14.94,11.51,1.04,1.44,2.03,2.94,3.24,4.23,2.81,3.02,5.97,4.88,10.47,4.05,3.6-.66,7.34-.7,11.02-.73,10.95-.09,21.88-.43,32.72-2,2.94-.42,5.81-1.44,8.65-2.37,.89-.29,1.57-1.21,2.6-2.05-1.13-1.09-1.9-1.82-2.66-2.55-1.48,.23-2.91,.45-4.47,.7-.28-1.04-.49-1.81-.7-2.59,.88,.59,1.69,1.79,2.88,.26-1.01-.08-1.92-.15-2.84-.22-3.76,.65-7.6,1.03-11.28,2.01-8.56,2.27-17.06,1.36-25.52-.2-2.44-.45-4.69-1.98-7.02-3.03-.61-.28-1.24-.95-1.78-.87-3.45,.48-5.46-1.97-7.92-3.59-1.66-1.09-3.54-1.94-5.43-2.56-1.44-.47-2.47-1.06-2.81-2.6l-.04,.13Zm-66.82-99.16c.65-.31,1.83-.58,1.85-.93,.09-1.45-1.05-1.56-2.18-1.49-.56-1.71-1.12-3.42-1.76-5.38-3.22,8.9-5.46,22.71-4.23,26.08,2.27-.81,3.31-2.55,4.02-4.74,.72-2.22,0-4.8,.67-6.52,.91-2.36,.87-4.76,1.63-7.03Zm171.77-33.52l.1,.1c-1-.8-2.04-2.31-3.01-2.27-3.36,.13-6.46-1.08-9.71-1.38-.21-.02-.45,.26-.9,.52-.12,1.23,.28,3.12-1.81,3.27-.51,.04-1.09-.96-1.66-1.51,.2-1.02,.4-2.03,.6-3.05-.38,0-.76,0-1.13,0,.2,1.05,.4,2.1,.61,3.15-2.48,1.75-5,2.74-7.72,.43-.1-.08-.26-.08-.39-.12-4.11-1.39-8.2-2.82-12.33-4.13-.52-.17-1.23,.27-1.84,.42,1.48,9.26,3.91,11.78,12.73,12.71,4.33,.46,8.73,.22,13.08,.6,4.33,.38,8.04-1.12,11.68-3.09,2.71-1.47,2.93-2.24,1.7-5.64ZM252.19,928.81h-2.02c.47-1.14,.86-2.08,1.43-3.45-3.08,.55-3.52,2.44-3.38,4.37,.64,8.9-1.17,17.98,2,26.69,.09,.25,.07,.54,.12,.81,.61,3.77,.72,7.71,1.98,11.24,1.25,3.5,2.42,6.61,2.26,10.58-.17,4.5,3.59,8.15,5.27,12.34,.02,.06,.25,.04,.04,.01,.6-2.45,1.1-4.86,1.8-7.21,.3-1.02,1.05-1.91,1.52-2.9,2.07-4.41,2.51-8.59-2.1-11.92,2.11-2.93,3.36-5.84,3.17-9.33-.32-5.71-.35-11.43-.62-17.14-.06-1.33-.23-3.38-1.04-3.82-2.28-1.24-1.65-2.7-1.17-4.43,.42-1.51,.51-3.64-1.17-3.84-3.11-.39-3.53-2.96-4.66-4.88-1.39,1.13-2.54,2.07-3.69,3.01l.27-.13Zm-34.71,36.38c-.29,1.46-1.29,2.94,.31,5.07,.37-2.17,1.23-3.64-.49-4.93-2.27-2.74-2-5.66-.81-8.68,3.83,.34,5.91,2.48,6.17,5.8,.21,2.68,.73,5.33,1.06,8,.19,1.59,.87,3.44,.31,4.74-3.25,7.6,.87,13.41,4.35,19.39,.35,.59,1.32,.99,2.07,1.15,2.59,.58,4.49,1.83,4.86,4.67h8.75c-.38-2.07-.77-4.15-1.16-6.24-.15-.79-.65-1.69-.42-2.33,1.57-4.28-.76-8.29-.77-12.48,0-3.49-1.05-6.98-1.62-10.46-.26-1.54-.55-3.08-.74-4.62-.2-1.58,.12-3.38-.54-4.72-1.23-2.49-.98-4.72,.1-7.05l-.04,.15c.23-1.78-.24-3.39-.68-5.13-.75-2.95-.78-6.14-.72-9.21,.03-1.72,1.64-2.29,3.28-2.31,.08,0,.2-.19,.24-.31,.94-2.82,2.58-5.63,2.62-8.47,.04-3.45,.61-6.41,2.74-8.9-1.42-4.73-5.12-4.77-8.7-4.56-8.1,.47-15.91,2.38-23.42,5.4-4.16,1.67-8.12,3.81-12.28,5.47-3.4,1.36-6.21,3.4-8.5,6.16-1.12,1.35-2.33,2.83-2.8,4.46-.41,1.39,.18,3.07,.32,4.58-.38,.2-.74,.37-1.08,.59-.08,.05-.08,.24-.19,.64,4.28,2.11,2.37,7.02,4.46,10.28-1.51,3.14,.59,5.18,2.18,7.43,.52,.74,.89,1.73,.94,2.62,.25,5.02-.27,10.12,1.58,14.97-1.47,2.97-.88,5.89-.36,9.02,.25,1.53,.2,3.09,.91,4.6,.58,1.22,1.29,2.57,1.24,3.84-.14,3.7,2.52,5.42,4.72,7.54,.84,.81,1.93,1.57,2.33,2.58,1.16,2.93,2.15,5.92,4.48,8.72,1.18-1.13,2.22-2.13,2.82-2.7,1.59,.19,3.02,.77,3.96,.32,.58-.28,.63-2.15,.52-3.26-.28-2.84-.91-5.66-1.17-8.5-.77-8.44-2.31-16.73-4.79-24.83-.67-2.19-.44-4.03,1.06-5.68,.91-1,1.96-1.87,2.95-2.8Zm553.98,120.27c1.97-1.3,4.36-2.18,4.83-4.93,3.39-.38,2.82-3.6,3.93-5.59,.51-.92,.51-2.12,.87-3.14,2.35-6.8,3.35-13.74,2.5-20.93-.64-5.4-1.48-10.77-1.28-16.25,.06-1.6,.3-2.78,1.53-3.97,2.04-1.97,2.22-4.23,.94-6.7-1.26-2.42-2.65-4.77-3.84-7.21-.65-1.34-1.26-2.79-1.41-4.25-.08-.84,.6-2.08,1.32-2.55,.44-.29,1.86,.29,2.4,.89,.82,.91,1.27,2.17,1.98,3.47,3.51-4.37,1.36-8.66,.54-12.76-.52-2.6-1.86-5.03-3.03-8.06-.11-.07-.93-.36-1.48-.91-4.46-4.54-9.94-6.71-16.12-8.05-8.86-1.93-17.85-2.52-26.81-3.41-2-.2-4.14,0-6.08,.51-1.15,.3-2.64,1.36-2.97,2.4-1.14,3.61-2.15,7.33-2.62,11.08-.48,3.85-1.58,7.81,.27,11.68,.32,.68-.04,1.66,.17,2.42,1.48,5.34-1.23,11.24,2.17,16.32,.2,.3,.26,.86,.12,1.19-1.33,3.22,.74,6.07,1.06,9.1,.19,1.84,1.6,3.55,2.74,5.92,0,.57-.48,2.19,.09,3.23,1.98,3.62,1.09,6.65-1.77,9.88,2.57,1.63,4.12,3.71,2.65,6.73-.05,.1,0,.31,.08,.39,1.6,1.69,.6,3.56,.5,5.42-.11,1.97,.2,3.96,.36,6.31,2.06-.35,3.63-.62,5.64-.96,.41-3.59,.8-6.99,1.21-10.6,3.05,1.36,1.32,4.24,2.27,6.31,2.03-1.69,1.44-3.59,1.3-5.47-.15-2.01-.52-4.19,.06-6.03,.8-2.53,.73-4.83-.14-7.19-.95-2.56-.85-5.05,.11-7.6,.52-1.39,1.11-2.94,.98-4.36-.45-5.09,.12-9.98,1.38-14.94,1.2-4.75,1.62-9.69,2.51-14.53,.28-1.51,.97-2.95,1.47-4.42,.32-.01,.64-.02,.96-.03,.51,1.16,1.06,2.32,1.54,3.5,1.85,4.52,3.81,9.01,5.48,13.6,2.02,5.57,6.86,9.98,6.72,16.43-.01,.52,.27,1.06,.47,1.56,2.61,6.43,1.77,13.16,1.54,19.79-.1,2.95,.1,5.61,1.42,8.31,2.11,4.31,3.5,8.77,1.86,13.7-.49,1.47-.2,3.19-.27,4.8-1.53-.29-3.3-.43-3.83,1.26-.3,.96,.62,2.29,.99,3.46,.33,0,.67-.01,1-.02,.58-1.59,1.15-3.19,1.73-4.78ZM421.02,459.56c7.87,2.79,51.19,8.3,55.69,7.02-.55-5.94,.21-12.03-.64-18.3-9.97-1.21-19.54-2.4-29.08-4.24v-12.61c9.15,.27,17.6,3.32,26.82,3.88-.45-6.3-.86-12.08-1.25-17.49-9.2-1.74-17.87-3.39-26.65-5.05-.07-3.79-1-7.27,0-11.06,9.25,.38,18.21,4.71,27.62,1.36,.22-6.23,.02-12.16-3.26-17.96-2.29,.33-4.54,.8-6.82,.94-3.11,.19-6.28,.48-9.35,.09-7.17-.91-14.29-2.25-21.44-3.31-3.89-.57-7.81-.93-12.34-1.45v21.19c-3.19-4.32-5.65-7.9-8.37-11.28-7.3-9.06-16.57-13.47-28.41-12.13-5.01,.57-10.19,1.33-15.1,.64-7.9-1.11-15.52-.17-23.22,1.02-4.26,.66-4.31,.67-4.45,4.78-.34,9.56-.45,19.13-.99,28.68-.53,9.54-1.46,19.07-2.23,28.6-.34,4.17-.73,8.33-1.12,12.72,1.5,.16,2.42,.35,3.34,.34,12.17-.09,24.33-.09,36.5-.36,6.56-.15,13.09-.95,19.32-3.26,9.98-3.7,18.72-9,23.99-18.74,.22-.4,.67-.67,1.44-1.41v27.4Zm117.13,11.34c1.46-.18,2.17-.13,2.77-.36,11.59-4.33,20.83-13.72,20.55-28.55-.09-4.64-.74-9.26-1.12-13.89-.13-1.52-.21-3.05-.32-4.57,6.13,5.55,13.32,7.66,20.65,9.53,3.17,.81,6.39,1.68,9.33,3.07,3.05,1.43,5.93,3.32,8.61,5.38,2.38,1.83,2.95,4.65,2.06,7.45-.88,2.76-3.24,4.16-5.96,4.31-2.96,.17-6.03,.16-8.92-.44-5.41-1.13-10.2-3.82-14.78-6.86-1.11-.73-2.24-1.43-3.72-2.37-3.61,6.42-6.86,12.61-9.73,19.09,1.04,.7,1.68,1.2,2.38,1.6,7.53,4.29,15.48,7.55,23.97,9.31,8.11,1.68,16.31,2.06,24.43,.28,8-1.75,14.27-5.85,15.96-14.51,2.05-10.46-.28-19.67-9.14-26.29-4.91-3.67-10.28-6.74-15.38-10.17-4.65-3.12-9.31-6.24-13.8-9.58-2.22-1.66-4.56-3.53-4.22-7.23,1.57,0,3.05-.21,4.44,.04,5.17,.92,9.94,2.92,14.38,5.72,1,.64,2.05,1.2,3.46,2.02,3.18-6.34,6.21-12.38,9.5-18.93-3.27-1.49-6.15-2.99-9.17-4.14-11.92-4.56-24.33-4.69-36.81-3.77-4.09,.3-7.15,2.53-9.19,6.09-.65,1.14-1.19,2.35-2.19,4.33-.9-5.08-1.65-9.29-2.45-13.77-8.41,.12-15.59,3.8-23.41,5,0,1.1-.07,1.78,.01,2.43,1.59,12.33,2.99,24.69,4.89,36.97,1.38,8.92,2.39,17.83,2.43,26.86,.03,5.15,.3,10.3,.48,15.95Zm-10.03-19.36c-1.31,.29-1.96,.44-2.61,.57-11.33,2.12-22.19-2.61-23.17-16.91-.72-10.63-1.6-21.24-2.4-31.87-.34-4.5-.56-9-1.02-13.49-.16-1.54-.21-3.31-2.06-4.18-5.49-2.57-11.14-3.12-17.52-1.89,.49,2.82,.84,5.21,1.33,7.58,1.09,5.35,2.64,10.63,3.25,16.03,.57,5,2.06,9.56,4.06,14.07,1.1,2.49,2.17,5.04,2.83,7.66,3.06,12.17,6.03,24.37,8.9,36.58,.45,1.92,1.13,3.15,3.12,3.78,8.7,2.72,17.58,3.87,26.67,3.39,.89-.05,1.76-.52,3.07-.92-1.48-6.79-2.91-13.4-4.44-20.42ZM501.77,29.66c-2.75,4.61-7.1,7.51-9.66,12.48,5.44,.02,9.78-1.12,13.86-4.13-.07,1.32-.1,2.06-.13,2.67,4.93,.54,9.67,1.01,14.39,1.61,3.21,.41,3.29,.48,3.68,3.64,.22,1.77,.64,3.32,2.57,3.7,3.03,.6,6.09,1.05,9.16,1.56,.4-1.97,.71-3.48,1.03-5.03,4.16,.27,7.24,1.47,8.58,6.61,.49-2.77,1.35-3.67,3.17-3.01,.63,.23,1.34,.24,2.01,.36,2.57,.46,4.93-.72,6.4-3.2,1.22-2.05,1.29-4.06-.8-5.92-2.07-1.85-2.59-3.88-2.18-6.28-5.4-3.48-10.97-5.97-16.88-7.65-1.47-.42-3.02-.99-4.7,.09-1.38,.89-2.85,.75-3.42-1.39-.15-.58-1.09-1.12-1.77-1.37-2.75-1.03-5.51-1.55-8.18,.36-.61,.43-1.45,.54-2.46,.89,.28-1.18,.48-2.03,.82-3.46-2.42-.23-4.54-.59-6.66-.59-10.59-.02-20.93,1.75-31.19,4.24-9.82,2.39-15.43,9.35-19.7,17.74-1.52,2.99,.08,5.31,3.45,4.99,2.49-.24,5.1-1,7.29-2.21,4.6-2.54,8.14-6.29,10.99-10.78,1.11-1.75,2.56-3.72,5.69-4.16-2.36,4.98-6.57,7.92-8.94,12.69,4.82,.11,8.62-.19,11.31-4.25,1.95-2.94,4.45-5.52,6.76-8.22,1.28-1.5,2.81-2.57,5.52-1.97Zm-96.28,105.53c-3.76-.79-4.75-.21-4.67,3.25,.18,6.98,.96,13.92,2.99,20.62,1.46,4.82,2.76,9.82,5.18,14.16,2.02,3.62,3.97,7.1,4.75,11.17,.61,3.18,2.7,5.36,5.02,7.26,2.09,1.71,4.64,1.5,7,.48,2.48-1.07,1.91-3.38,1.76-5.37-.15-1.89-.78-3.75-.86-5.64-.19-4.5-.14-9.02-3.84-12.96,2.37-1.39,2.4-3.27,1.72-5.41-.27-.86,.04-1.89-.05-2.83-.23-2.44-.32-4.92-.84-7.3-.81-3.72-1.99-4.6-6.43-5.1,1.64-.8,2.62-1.5,3.71-1.76,2.03-.5,2.85-1.84,2.35-3.62-.69-2.47-1.15-5.62-2.88-7.05-3.52-2.9-7.67-5.18-11.86-7.04-2.85-1.26-3.95-.08-4.79,3.67,2.09,.76,4.19,1.52,7.32,2.65-4.82,3.52-3.62,7.98-3.92,12.12-.18,2.44-.56,4.87-.96,8.17-1.47-3.44-.49-5.77-.19-8.25,.43-3.57-.27-7.28-.5-11.24Zm69.44,9.26c-1.25-5.93-2.08-6.37-7.42-4.23-.38,.15-.87,.17-1.14,.43-1.56,1.53-3.22,1.15-4.9,.31-1.31-.65-2.53-.89-3.84,.07-.5,.37-1.33,.74-1.84,.58-3.17-1-6.13-.3-9.19,.6-2.81,.83-3.33,1.2-2.47,3.75,1.61,4.79,4.3,8.55,9.76,9.35,1.62,.24,3.24,.51,4.86,.63,3.94,.29,7.88,.68,11.82,.64,1.69-.02,1.17,1.97,2.87,2.02,3.9,.12,6.97-.63,10.44-3.03,5.18-3.6,7.33-8.6,9.45-13.89,.41-1.01,.27-2.24,.39-3.36-3.01,3.25-6.55,4.53-10.47,5.56-3.76,.99-7.16,3.35-11.2,3.14-.1-.27-.19-.54-.29-.81,.99-.55,1.97-1.09,3.17-1.75ZM201.28,1018.77c.37-.24,.74-.48,1.12-.73-.61-1.62-1.16-3.26-1.83-4.86-1.96-4.66-3.48-9.41-4.11-14.48-.54-4.32-1.51-8.58-2.37-12.85-.77-3.82-2.5-7.21-5.02-10.17-1.59-1.87-2.82-1.73-4.09,.42-1.48,2.5-2.43,5.09-1.84,8.12,.89,4.53,1.2,9.22,2.51,13.62,1.19,3.99,3.44,7.66,5.11,11.53,.81,1.89,1.87,3.35,4.05,3.54,1.98,.18,3.15,1.26,4.06,2.96,.58,1.08,1.58,1.94,2.4,2.9ZM487.1,458.51c-.17-1.31-.28-2.63-.51-3.94-1.28-7.38-2.64-14.75-3.87-22.13-1.1-6.58-1.84-13.23-3.16-19.77-.72-3.55-2.31-6.93-3.51-10.38l-.92,.21c0,1.34-.06,2.68,.01,4.02,.54,9.8,1.1,19.61,1.65,29.41,.32,5.67,1.86,11.03,4.39,16.07,1.26,2.51,2.62,5.04,5.91,6.51ZM179.28,995.61c.18-.36,.51-.71,.51-1.05,0-4.36,.26-8.75-.2-13.06-.37-3.47-1.56-6.86-2.56-10.23-.2-.69-1.15-1.16-1.79-1.77-5.52,7.47-1.49,22.07,4.03,26.12Zm611.45,48.1c-2.46,7.21-.68,13.96-.33,20.69,3.14-4.64,3-9.96,3.29-15.14,.1-1.78-.1-3.85-2.96-5.55ZM476.17,114.43c.13-2.36-.66-3.64-2.22-3.63-1.39,.01-2.9,1.63-2.91,3.42,0,1.06,.17,2.25,.66,3.16,.39,.72,1.55,1.7,2.06,1.54,.85-.25,1.62-1.23,2.09-2.08,.37-.66,.23-1.6,.31-2.41ZM220.49,1020.1c.23,1.11,.45,1.75,.47,2.39,.02,.8-.2,1.61-.17,2.41,.06,1.39,1.71,2.71,3.11,2.48,1.62-.27,1.72-1.52,1.56-2.81-.28-2.3-1.72-3.69-4.97-4.47Zm43.28-32.19c-1.21,3.63-1.23,6.35-.04,7.64,1.05,1.14,2.31,1.57,4.35,.47-3.93-1.65-.57-6.23-4.32-8.11ZM481.91,127.44c-1.3-1-1.99-1.53-2.92-2.25-1.22,1.38-2.29,2.6-3.36,3.82l.59,.82c1.71-.72,3.43-1.43,5.7-2.39Zm-50.36-14.93q3.31-.39,4.17-6.09c-3.44,.54-2.09,3.98-4.17,6.09Zm318.05,965.99c1.9,.95,3.86,1.85,5.58-.63-2.21-1.37-3.82,.33-5.58,.63ZM472.66,106.38c3.12,1.83,4.78,1.95,9.1,.66-3-1.41-5.9-1.72-9.1-.66Zm59.13,21.78c-.2-1.6-.95-2.58-2.32-2.37-1.41,.22-2.65,1.03-2.58,3,1.74-.22,3.24-.42,4.9-.63Zm-143.04,69.04c2.19,1.75,3,1.06,4.23-1.14-1.72,.47-2.67,.72-4.23,1.14Zm37.25-59.17c-.81,1.6-1.62,3.19,0,4.82v-4.82Zm37.75-9.94c-.18,.23-.36,.45-.53,.68,.67,.52,1.35,1.05,2.02,1.57,.17-.21,.34-.43,.51-.64-.66-.54-1.33-1.07-1.99-1.61ZM240,1003.62c-.44-.63-.71-1.03-.98-1.42-.45,.32-.99,.58-1.3,1.01-.09,.12,.42,.95,.77,1.05,.34,.1,.83-.33,1.5-.64ZM518.25,159.82c.34-.14,.67-.28,1.01-.42-.3-.57-.6-1.14-.94-1.69-.02-.03-.62,.23-.61,.28,.14,.62,.35,1.22,.54,1.82Zm21.05-18.12c-.41,.86-.78,1.27-.7,1.52,.19,.52,.61,.96,.94,1.44,.29-.21,.85-.49,.82-.62-.14-.55-.45-1.06-1.06-2.33ZM185.95,944.21c-.58-.35-.96-.73-1.14-.65-.3,.13-.63,.55-.65,.86-.01,.28,.39,.58,.61,.87,.33-.3,.67-.61,1.18-1.08ZM437.93,102.09c-.56-.33-.96-.61-1.4-.76-.07-.02-.57,.71-.48,.85,.22,.35,.64,.65,1.04,.78,.14,.05,.46-.46,.85-.87Zm148.97,69.46c.34,0,.67-.02,1.01-.03l-.21-2.13c-.23,.01-.45,.03-.68,.04-.04,.71-.08,1.41-.11,2.12ZM222.29,973.46c-.19-.14-.38-.39-.56-.38-.18,.01-.35,.28-.52,.44,.25,.19,.5,.37,.75,.56,.11-.21,.22-.41,.33-.62ZM517.03,166.8c.34-.49,.53-.77,.72-1.05-.27-.18-.52-.41-.81-.49-.1-.03-.45,.35-.43,.52,.03,.28,.26,.54,.52,1.02Zm-75.19-64.54c.24-.04,.47-.08,.71-.12-.08-.53-.16-1.06-.25-1.59-.21,.03-.42,.05-.63,.08,.05,.54,.11,1.09,.16,1.63Zm118.9,58.98c-.23-.09-.48-.29-.68-.24-.16,.04-.25,.37-.37,.57,.23,.09,.48,.29,.67,.24,.16-.04,.26-.37,.38-.57Zm200.63,904.26c-.2,.14-.4,.28-.59,.41,.23,.2,.45,.4,.68,.6,.14-.19,.4-.37,.4-.56,0-.15-.31-.3-.48-.45Z"/>
  <path class="cls-1" d="M599.86,186.93c-.32-1.73-.64-3.46-.96-5.2-.17-1.31-.1-2.73-.58-3.92-.55-1.35-1.56-2.52-2.41-3.74-.69-.99-1.1-2.29-2.9-2.86,1.54,3.3,2.79,6.13,4.19,8.9,.33,.66,1.13,1.08,1.7,1.64,.33,1.7,.66,3.41,.99,5.11,.57,1.06,1.14,2.11,1.71,3.17,.62-1.9-.57-2.49-1.74-3.11Zm10.87-2.36c-2.62-1.22-4.72-2.2-7.1-3.31,.54,3.55,2.52,4.42,7.1,3.31Zm-29.68-34.26c1.45-1.08,2.53-2.43,.42-4.12-.14,1.37-.28,2.74-.42,4.12Z"/>
  <path class="cls-1" d="M489.12,164.7c1.87-2.94,2.45-6.44,3.96-9.46,1.36-2.71,3.66-5.05,5.89-7.19,1.61-1.55,2.45-2.91,2.3-5.26-.25-3.96,.68-7.82,2.32-11.47,.95-2.11,2.81-3.02,4.97-2.42,2.11,.58,2.6,1.83,2.21,4.04-.35,1.96,.13,4.07,.19,6.11,.02,.92,.2,2.05-.24,2.74-1.27,2.04-.48,3.32,1.19,4.47,.34,.23,.66,.5,1.01,.71,2.3,1.37,3.96,3.23,3.14,6.03-.87,3.01-2.77,5.31-6.05,6.07-4.28,.99-8.39,1.23-11.73-2.4-.23-.25-.75-.23-1.12-.34-3.39,6.71-3.85,9.15,.89,10.43,.53-.56,1.2-1.19,1.78-1.89,.59-.71,1.1-1.48,1.78-2.4,.69,.5,1.24,.85,1.75,1.26q2.72,2.22,5.89,.3c1.92-1.17,3-.89,3.81,1.16,.34,.86,.46,1.85,.51,2.79,.2,3.87,2.28,6.68,5.22,8.86,.74,.55,2.03,.36,3.06,.51,.15-.28,.29-.57,.44-.85-.79-1.04-1.51-2.14-2.39-3.09-1.01-1.09-1.29-2.27-.21-3.24,3.93-3.52,4.18-8.04,3.75-12.8-.02-.23,.2-.48,.36-.84,2.61,1.02,5.15,2.56,7.86,2.97,5.65,.86,11.39,1.12,17.1,1.62,2.03,.18,4.07,.27,6.1,.53,4.68,.61,6.26,4.23,3.55,8.06-2.16,3.06-2.12,3.28,.96,5.84,0,0-.21-.22-.21-.22,.95,3.59-.77,6.56-2.29,9.56-.36,.71-1.03,1.26-1.52,1.92-2.51,3.34-2.49,3.67,.61,7.07-.96,2.33-1.97,4.81-3,7.27-1,2.39-.13,6.22,2.05,7.93,1.2,.94,1.09,1.72,.36,2.74,0,0,.09,.12,.09,.12-2.87-.09-2.92-.04-2.98,2.97l-.11-.1c.28,1.08,.56,2.15,.84,3.22-.57,.02-1.14,.03-1.71,.05,.04,.23,.07,.47,.11,.7,.57-.13,1.14-.26,1.72-.39-.88,2.66-1.75,5.33-2.63,7.99-.08,.26-.3,.58-.22,.77,1.97,4.61-2.45,7.67-2.85,11.7-.03,.35-.39,.78-.71,.96-3.86,2.15-4.8,6.24-6.61,9.77-.64,1.25-1.64,2.31-2.16,3.03-3.15-.57-5.63-1.02-8.11-1.45,0,.02,.05,.11,.05,.11,.6-1.65,1.28-3.27,1.77-4.95,.49-1.68,.79-3.42,1.19-5.13,.57-2.46-.91-4.79-3.3-4.47-4.19,.56-8.19,1.73-10.7,5.74-.74,1.18-2.09,2.05-3.3,2.84-1.45,.95-3.05,1.66-4.07,2.2-2.08,.09-4.02-.36-5.31,.36-1.48,.82-2.5,.54-3.79,.11-.87-.29-1.79-.44-2.98-.72,.49,1.85,.89,3.36,1.41,5.34,3.61-.54,6.17,1.36,8.74,3.5,.9,.75,2.53,.81,3.84,.83,3.41,.08,6.81-.04,10.22-.08-1.12,.58-2.22,1.19-1.75,2.76,1.13,3.72-1.44,5.7-3.77,7.64-1.11,.93-2.28,1.55-3.14,2.92-.86,1.37-2.65,2.17-4.07,3.16-1.2,.83-2.47,1.57-3.7,2.35-.05-.84-.1-1.68-.15-2.52l-.82,.16c.38,.8,.76,1.61,1.13,2.41-2.28,.15-4.55,.3-6.83,.45,.05,.16,.14,.27,.28,.34-.49-.43-.99-.87-1.63-1.43-.99,.92-1.84,1.72-2.89,2.7-2.44-3.56-5.08-.58-7.66-.37-.46,.04-1.22,.62-1.3,.52-2.13-2.65-3.09,.4-4.53,1.14-.9-1.25-1.67-2.32-2.54-3.53-1.25,.24-2.42,.46-3.6,.69,0,0,.31-.04,.31-.04-2.54-.55-5.09-1.03-7.6-1.69-.81-.21-1.88-.7-2.19-1.36-1.03-2.19-4.03-2.98-4.03-5.86,0-.27-.54-.6-.88-.81-2.61-1.59-5.32-3.03-7.84-4.75-3.12-2.14-5.67-4.73-5.25-9.01,.06-.65,.03-1.38-.19-1.98-.82-2.29-1.64-4.59-2.63-6.81-1.52-3.43-3.17-6.8-4.77-10.2-.12-.24-.47-.55-.4-.68,1.28-2.58-1.25-4.35-1.37-6.63-.26-4.75-.55-9.5-.89-14.24-.18-2.56-.5-5.11-.74-7.67-.05-.54-.08-1.1,0-1.63q.7-4.23-1.42-7.77c3.28-2.84,1.26-6.97,2.26-10.53,.5-1.77,.37-3.72,.52-5.59,.04-.54,.32-1.23,.09-1.6-2.58-4.05-.15-8.09-.06-12.38-.56-.35-1.19-.88-1.91-1.15-1.87-.71-2.47-1.97-2.06-3.88,.49-2.29-.48-4.19-1.47-6.21-1.24-2.54-2-5.32-3.02-7.97-.43-1.11-.82-2.31-1.53-3.23-1.5-1.94-1.03-3.99-.22-5.81,.36-.81,1.91-1.1,3.3-1.83,.04-.55,.13-1.58,.23-2.83,.56,.21,1.09,.24,1.2,.47,.83,1.69,1.81,3.35,2.3,5.15,1.18,4.34,1.88,8.77,4.15,12.81,2.29,4.09,5.41,6.72,10.04,7.66,10.17,2.06,20.36,2.18,30.56,.47,2.37-.4,4.63-1.46,7.07-2.26,.27,2.76,.53,5.51,.8,8.24,.47,1.38,.61,3.03,1.47,4.1,1.66,2.05,3.74,3.78,5.64,5.64,3.14-3.47,2.87-4.6-.99-6.42-1.21-.57-2.17-1.86-3-3-1.09-1.5-2.05-1.59-3.21-.19Zm2.54,48.82c.05-.15,0-.26-.12-.36,1.42,1.91,2.97,3.63,5.6,3.67,5.17,.08,10.4,.65,15.48,.05,4.44-.52,9.3,1.22,12.8-1.91,4.35,.49,1.73,4.8,4.15,6.55,.68-2.56,1.26-4.78,1.9-7.17-3.68-5.27,.28-10.21,.85-15.29,1.01-.39,1.83-.71,3.28-1.27-1.42-1.09-2.29-2.29-3.3-2.43-3.88-.52-5.73-3.24-7.62-6.14-1.11-1.71-2.44-3.29-3.8-4.81-2.24-2.51-5.56-1.77-8.38-2.52-.36-.09-1,.42-1.34,.81-1.51,1.71-3,2.77-5.64,2.36-2.05-.32-4.28,.59-6.43,.9-.15,.02-.35-.36-.55-.57,.43-1.11,.88-2.27,1.42-3.66-4.41,.81-5.83,5.08-9.37,6.47-.82,.32-1.1,1.84-1.84,2.61-2.74,2.85-5.58,5.6-8.37,8.41-2.05,2.06-2.07,3.09,.11,5.02,1.94,1.72,3.82,3.67,6.08,4.8,2.2,1.1,3.67,2.69,5.09,4.48Zm42.11-3.16c-.15-.18-.29-.35-.44-.53-.46,.32-.91,.64-1.37,.96,.21,.24,.41,.49,.62,.73,.4-.39,.79-.77,1.19-1.16Zm-42.93-32c.22,.09,.45,.17,.67,.26,.24-.61,.48-1.22,.72-1.84l-.7-.26c-.23,.61-.47,1.22-.7,1.83Zm63.82-.89c.16-.19,.41-.37,.44-.58,.03-.18-.19-.4-.3-.6-.16,.19-.42,.36-.45,.56-.03,.19,.19,.41,.3,.62Z"/>
  <path class="cls-1" d="M421.02,459.56v-27.4c-.77,.74-1.23,1.01-1.44,1.41-5.27,9.74-14.02,15.04-23.99,18.74-6.23,2.31-12.75,3.12-19.32,3.26-12.16,.27-24.33,.27-36.5,.36-.92,0-1.85-.18-3.34-.34,.39-4.39,.78-8.55,1.12-12.72,.77-9.53,1.7-19.05,2.23-28.6,.53-9.55,.65-19.12,.99-28.68,.15-4.1,.19-4.12,4.45-4.78,7.7-1.19,15.32-2.13,23.22-1.02,4.91,.69,10.09-.07,15.1-.64,11.84-1.35,21.12,3.07,28.41,12.13,2.72,3.37,5.18,6.96,8.37,11.28v-21.19c4.53,.52,8.45,.87,12.34,1.45,7.15,1.06,14.27,2.4,21.44,3.31,3.07,.39,6.24,.1,9.35-.09,2.28-.14,4.54-.61,6.82-.94,3.27,5.81,3.48,11.73,3.26,17.96-9.41,3.35-18.37-.98-27.62-1.36-1.01,3.79-.07,7.27,0,11.06,8.78,1.66,17.45,3.31,26.65,5.05,.39,5.41,.8,11.19,1.25,17.49-9.22-.55-17.67-3.61-26.82-3.88v12.61c9.54,1.83,19.11,3.02,29.08,4.24,.85,6.27,.09,12.36,.64,18.3-4.51,1.28-47.82-4.23-55.69-7.02Zm-57.52-22.68c8.59-.03,16.72-.31,24.06-4.6,5.3-3.1,8.34-7.9,8.66-14.03,.17-3.22-.12-6.58-.87-9.71-1.14-4.74-4.11-8.3-8.77-10.12-6.77-2.63-13.86-1.81-21.14-2.27-1.15,13.72-2.19,26.97-1.94,40.73Z"/>
  <path class="cls-1" d="M538.16,470.89c-.18-5.65-.46-10.8-.48-15.95-.04-9.03-1.05-17.94-2.43-26.86-1.9-12.28-3.29-24.64-4.89-36.97-.09-.66-.01-1.34-.01-2.43,7.82-1.19,15-4.88,23.41-5,.8,4.47,1.54,8.69,2.45,13.77,1-1.98,1.53-3.19,2.19-4.33,2.04-3.56,5.1-5.78,9.19-6.09,12.48-.93,24.89-.8,36.81,3.77,3.02,1.16,5.9,2.66,9.17,4.14-3.29,6.56-6.32,12.6-9.5,18.93-1.4-.82-2.45-1.38-3.46-2.02-4.44-2.81-9.21-4.8-14.38-5.72-1.39-.25-2.87-.04-4.44-.04-.34,3.7,1.99,5.57,4.22,7.23,4.49,3.34,9.15,6.46,13.8,9.58,5.1,3.42,10.47,6.49,15.38,10.17,8.86,6.62,11.19,15.83,9.14,26.29-1.7,8.66-7.96,12.76-15.96,14.51-8.12,1.77-16.32,1.4-24.43-.28-8.5-1.76-16.44-5.02-23.97-9.31-.7-.4-1.34-.9-2.38-1.6,2.87-6.48,6.12-12.67,9.73-19.09,1.48,.94,2.61,1.63,3.72,2.37,4.58,3.04,9.38,5.73,14.78,6.86,2.88,.6,5.96,.62,8.92,.44,2.72-.16,5.08-1.56,5.96-4.31,.89-2.8,.32-5.63-2.06-7.45-2.68-2.05-5.57-3.94-8.61-5.38-2.94-1.38-6.16-2.26-9.33-3.07-7.33-1.87-14.51-3.98-20.65-9.53,.1,1.52,.19,3.05,.32,4.57,.38,4.63,1.03,9.26,1.12,13.89,.29,14.83-8.96,24.22-20.55,28.55-.6,.23-1.31,.18-2.77,.36Z"/>
  <path class="cls-1" d="M771.58,1085.55c.07-1.61-.22-3.33,.27-4.8,1.64-4.93,.26-9.39-1.86-13.7-1.32-2.69-1.52-5.36-1.42-8.31,.23-6.63,1.07-13.36-1.54-19.79-.2-.5-.48-1.04-.47-1.56,.14-6.45-4.69-10.86-6.72-16.43-1.67-4.59-3.63-9.08-5.48-13.6-.48-1.18-1.02-2.33-1.54-3.5-.32,.01-.64,.02-.96,.03-.5,1.47-1.19,2.9-1.47,4.42-.89,4.84-1.3,9.78-2.51,14.53-1.26,4.96-1.83,9.85-1.38,14.94,.12,1.42-.46,2.97-.98,4.36-.96,2.55-1.06,5.04-.11,7.6,.88,2.36,.94,4.66,.14,7.19-.58,1.84-.21,4.02-.06,6.03,.14,1.88,.73,3.78-1.3,5.47-.95-2.07,.78-4.95-2.27-6.31-.41,3.6-.8,7.01-1.21,10.6-2.01,.34-3.57,.61-5.64,.96-.15-2.35-.46-4.34-.36-6.31,.1-1.86,1.1-3.73-.5-5.42-.08-.08-.12-.29-.08-.39,1.47-3.02-.08-5.11-2.65-6.73,2.86-3.23,3.75-6.25,1.77-9.88-.57-1.04-.09-2.66-.09-3.23-1.15-2.37-2.55-4.08-2.74-5.92-.32-3.03-2.38-5.88-1.06-9.1,.14-.33,.08-.89-.12-1.19-3.41-5.09-.7-10.98-2.17-16.32-.21-.77,.15-1.75-.17-2.42-1.85-3.87-.75-7.83-.27-11.68,.47-3.75,1.48-7.47,2.62-11.08,.33-1.04,1.82-2.1,2.97-2.4,1.95-.5,4.08-.71,6.08-.51,8.96,.89,17.95,1.48,26.81,3.41,6.18,1.35,11.66,3.51,16.12,8.05,.55,.56,1.37,.85,1.48,.91,1.17,3.03,2.51,5.46,3.03,8.06,.82,4.1,2.97,8.39-.54,12.76-.71-1.3-1.15-2.56-1.98-3.47-.54-.59-1.95-1.18-2.4-.89-.72,.48-1.41,1.72-1.32,2.55,.14,1.45,.75,2.91,1.41,4.25,1.19,2.45,2.58,4.8,3.84,7.21,1.29,2.47,1.1,4.73-.94,6.7-1.23,1.19-1.48,2.37-1.53,3.97-.19,5.48,.64,10.85,1.28,16.25,.85,7.19-.15,14.13-2.5,20.93-.35,1.03-.36,2.22-.87,3.14-1.1,1.99-.53,5.21-3.93,5.59-.48,2.76-2.87,3.64-4.84,4.93,0,0,.13,.08,.13,.08Z"/>
  <path class="cls-1" d="M238.9,952.5c-1.08,2.34-1.33,4.56-.1,7.05,.66,1.33,.34,3.14,.54,4.72,.2,1.55,.49,3.08,.74,4.62,.58,3.49,1.62,6.98,1.62,10.46,0,4.19,2.35,8.2,.77,12.48-.24,.64,.27,1.55,.42,2.33,.39,2.09,.78,4.17,1.16,6.24h-8.75c-.36-2.85-2.27-4.1-4.86-4.67-.75-.17-1.72-.56-2.07-1.15-3.48-5.98-7.6-11.79-4.35-19.39,.56-1.3-.12-3.15-.31-4.74-.33-2.67-.86-5.32-1.06-8-.26-3.32-2.34-5.46-6.17-5.8-1.2,3.02-1.47,5.94,.81,8.68,0,0,.19-.14,.19-.14-.99,.93-2.04,1.8-2.95,2.8-1.5,1.65-1.73,3.49-1.06,5.68,2.48,8.1,4.02,16.39,4.79,24.83,.26,2.85,.89,5.66,1.17,8.5,.11,1.12,.06,2.99-.52,3.26-.94,.45-2.37-.13-3.96-.32-.6,.57-1.64,1.57-2.82,2.7-2.33-2.8-3.32-5.79-4.48-8.72-.4-1.01-1.49-1.77-2.33-2.58-2.2-2.12-4.86-3.84-4.72-7.54,.05-1.27-.67-2.63-1.24-3.84-.71-1.5-.66-3.06-.91-4.6-.52-3.12-1.11-6.05,.36-9.02-1.85-4.85-1.33-9.95-1.58-14.97-.04-.89-.42-1.88-.94-2.62-1.59-2.25-3.69-4.29-2.18-7.43-2.09-3.26-.18-8.17-4.46-10.28,.11-.4,.11-.59,.19-.64,.34-.21,.7-.39,1.08-.59-.14-1.51-.72-3.19-.32-4.58,.48-1.62,1.68-3.1,2.8-4.46,2.29-2.77,5.1-4.8,8.5-6.16,4.16-1.66,8.13-3.8,12.28-5.47,7.51-3.02,15.33-4.93,23.42-5.4,3.57-.21,7.27-.17,8.7,4.56-2.13,2.49-2.7,5.45-2.74,8.9-.03,2.83-1.68,5.65-2.62,8.47-.04,.12-.15,.31-.24,.31-1.64,.02-3.24,.59-3.28,2.31-.06,3.08-.02,6.26,.72,9.21,.44,1.74,.91,3.35,.68,5.12-.51-1.21-.83-2.61-2.87-2.6-.17,2.47,.9,3.01,2.91,2.46Z"/>
  <path class="cls-1" d="M541.63,84.46c1.79,2.55,3.82,4.97,5.28,7.69,1.16,2.16-.38,4.44-2.77,4.09-4.5-.65-8.53,1.71-12.91,1.54-.88-.03-2.08,.32-2.63,.94-2.98,3.36-5.84,6.82-8.62,10.34-.38,.48-.25,2.12-.08,2.16,1.61,.42,.92,1.26,.59,2.14-.34,.89-.56,1.82-.84,2.73l.09-.11c-1.33,.78-2.33,2.39-4.34,1.38-.5-.25-1.43,.48-2.19,.62-2.52,.46-5.04,1.1-7.57,1.19-2.74,.1-4.89-1.32-6.46-3.67-2.12-3.18-4.51-6.09-7.62-8.48-1.34-1.03-1.85-3.15-2.85-4.98-1.14,.41-2.37,.86-3.84,1.39-.95-1.48-1.88-2.81-2.67-4.22-1.21-2.16-3.04-2.88-5.45-2.87-2.71,.02-5.43-.18-8.14-.39-5.65-.43-11.28-1.79-16.95-.05-.38,.12-.96-.4-1.45-.62-.16-.22-.33-.44-.5-.66-.84-.45-1.68-.91-3.1-1.67,3.42-2.08,7.26-3.36,3.88-7.83,16.41-5.87,32.74-10.07,49.63-11.95,4.88-.54,9.8-1.35,14.67-1.22,7.22,.2,14.44,.94,21.6,1.83,2.77,.35,5.41,1.74,8.25,2.71-.82,2.56-1.58,4.95-2.34,7.34,0,0-.02,0-.02,0-.68-1-1.37-1.99-2.33-3.39-.62,1.24-1.06,2.12-1.57,3.15,1.37,.28,2.4,.5,3.43,.71l-.21,.13Z"/>
  <path class="cls-1" d="M528.12,451.53c1.53,7.02,2.96,13.62,4.44,20.42-1.31,.41-2.18,.88-3.07,.92-9.09,.48-17.97-.67-26.67-3.39-1.99-.62-2.67-1.85-3.12-3.78-2.88-12.22-5.84-24.41-8.9-36.58-.66-2.63-1.73-5.18-2.83-7.66-2-4.52-3.49-9.08-4.06-14.07-.62-5.4-2.16-10.68-3.25-16.03-.48-2.37-.84-4.77-1.33-7.58,6.38-1.24,12.03-.69,17.52,1.89,1.85,.87,1.9,2.64,2.06,4.18,.46,4.48,.69,8.99,1.02,13.49,.8,10.62,1.68,21.24,2.4,31.87,.97,14.29,11.83,19.03,23.17,16.91,.65-.12,1.3-.28,2.61-.57Z"/>
  <path class="cls-1" d="M501.77,29.66c-2.71-.6-4.23,.47-5.52,1.97-2.3,2.7-4.81,5.28-6.76,8.22-2.68,4.06-6.48,4.37-11.31,4.25,2.37-4.77,6.57-7.71,8.94-12.69-3.13,.44-4.58,2.41-5.69,4.16-2.85,4.49-6.39,8.24-10.99,10.78-2.19,1.21-4.8,1.97-7.29,2.21-3.37,.32-4.97-2-3.45-4.99,4.27-8.39,9.88-15.35,19.7-17.74,10.26-2.49,20.61-4.26,31.19-4.24,2.12,0,4.23,.37,6.66,.59-.34,1.43-.54,2.27-.82,3.46,1.01-.35,1.85-.46,2.46-.89,2.67-1.92,5.43-1.39,8.18-.36,.69,.26,1.62,.79,1.77,1.37,.57,2.14,2.04,2.28,3.42,1.39,1.68-1.08,3.23-.5,4.7-.09,5.91,1.68,11.48,4.17,16.88,7.65-.41,2.4,.11,4.43,2.18,6.28,2.09,1.87,2.02,3.87,.8,5.92-1.47,2.48-3.83,3.66-6.4,3.2-.67-.12-1.38-.13-2.01-.36-1.82-.67-2.69,.23-3.17,3.01-1.34-5.14-4.42-6.34-8.58-6.61-.32,1.55-.62,3.06-1.03,5.03-3.07-.51-6.13-.96-9.16-1.56-1.94-.39-2.35-1.93-2.57-3.7-.39-3.16-.47-3.24-3.68-3.64-4.72-.6-9.45-1.06-14.39-1.61,.03-.61,.07-1.35,.13-2.67-4.09,3.01-8.43,4.15-13.86,4.13,2.56-4.97,6.91-7.88,9.66-12.48Zm40.93,12.66c2.93-1.06,6.08-1.87,6.77-6.3-2.49,2.34-4.6,4.32-6.66,6.33-.06,1.04-.88,2.49,1.55,2.29-.61-.85-1.14-1.59-1.66-2.32Zm-7.05-.07c1.11,.28,2.22,.56,3.33,.83,.02-.25,.03-.51,.05-.76-1.17,0-2.33,0-3.5,0,1.09-1.49,2.11-3.05,3.3-4.46,1.22-1.45,2.95-2.52,3.61-4.48-.47-.18-.66-.31-.7-.27-1.42,1.38-2.75,2.86-4.25,4.15-1.6,1.37-2.22,2.98-1.84,4.99Zm-15.18-11.74c-3.57,1.71-6.46,4.18-9.18,8.05,4.14-.3,7.46,1.55,11.04,.6-2.21-1.26-4.93-.87-7.41-2.58,1.14-1.17,2.1-2.09,2.97-3.08,.87-.99,1.65-2.05,2.47-3.08,1.08-.81,2.16-1.62,3.49-2.62-2.19-1.66-3.19-1.05-3.65,.73-.15,.6,.16,1.32,.25,1.98Zm-35.89-2.41c3.22,.34,6.6-2.24,9.77,.58,3.91-3.5,8.5-3.15,13.66-2.75-2.21,5.06-6.73,7.71-8.51,12.31,1.35-.47,2.96-1.09,3.25-2.08,.82-2.87,3-4.49,4.89-6.42,1.39-1.42,2.79-2.84,4.84-4.94-2.39-.14-3.85-.41-5.28-.27-4.62,.46-9.24,.96-13.82,1.67-2.93,.45-5.8,1.31-8.72,1.97-2.37,.36-4.74,.71-7.76,1.16,1.5,1.22,2.36,1.92,3.14,2.56,1.65-1.38,3.09-2.59,4.53-3.8Zm43.28,12.9c-3,1.32-3.99,2.97-3.22,5.46,.9,2.92,3.46,1.89,5.38,2.26,.71-1.22,1.29-2.23,2.02-3.48-1.51-.34-2.78-.63-4.17-.94v-3.29Zm-6.6-6.66c.25,.3,.5,.6,.74,.91,3.34-.84,5.3-3.54,7.61-5.74-.78-1.45-1.78-1.65-2.74-.76-1.94,1.79-3.75,3.72-5.61,5.59Zm-58.92,10.74c.28,.31,.57,.62,.85,.92,1.44-.37,2.89-.73,4.51-1.14-1.28-1.49-2.25-2.61-3.51-4.08-.67,1.56-1.26,2.93-1.85,4.3Zm72.94-14.5c-2.92,.22-6.27,2.82-8.19,6.66,3.04-2.47,5.57-4.53,8.19-6.66Zm15.13,16.37c1.34,.71,2.52-.02,3.49-1.25,.68-.85,1.16-1.8,.24-2.46-1.32,1.32-2.51,2.5-3.73,3.71Zm-16.41-1.17c-1.57,.82-1.36,1.93-.88,2.82,.27,.49,1.13,.66,1.72,.97,.17-.16,.35-.32,.52-.48-.43-1.04-.86-2.07-1.37-3.31Zm.77-10.09c-.2-.16-.41-.32-.61-.48-.81,.77-1.61,1.55-2.42,2.32,.26,.25,.52,.51,.77,.76,.75-.87,1.51-1.74,2.26-2.61Zm-61.15,.42c-.27-.24-.55-.48-.82-.73-.35,.46-.7,.93-1.04,1.39,.23,.2,.47,.41,.7,.61,.39-.43,.78-.85,1.16-1.28Z"/>
  <path class="cls-1" d="M405.49,135.19c.23,3.96,.93,7.67,.5,11.24-.3,2.47-1.28,4.8,.19,8.25,.4-3.3,.78-5.73,.96-8.17,.3-4.14-.9-8.59,3.92-12.12-3.13-1.13-5.24-1.9-7.32-2.65,.84-3.76,1.94-4.94,4.79-3.67,4.19,1.86,8.34,4.14,11.86,7.04,1.73,1.43,2.19,4.58,2.88,7.05,.5,1.78-.32,3.12-2.35,3.62-1.09,.27-2.07,.96-3.71,1.76,4.45,.5,5.62,1.38,6.43,5.1,.52,2.38,.62,4.86,.84,7.3,.09,.94-.22,1.97,.05,2.83,.68,2.14,.65,4.02-1.72,5.41,3.69,3.94,3.65,8.46,3.84,12.96,.08,1.89,.71,3.75,.86,5.64,.16,1.98,.72,4.3-1.76,5.37-2.36,1.02-4.9,1.23-7-.48-2.32-1.9-4.41-4.08-5.02-7.26-.78-4.07-2.73-7.55-4.75-11.17-2.42-4.34-3.72-9.34-5.18-14.16-2.03-6.7-2.82-13.64-2.99-20.62-.09-3.46,.91-4.05,4.67-3.25Zm11.86,7.34c.2,.15,.39,.3,.59,.45,.07-.17,.15-.35,.22-.52-.22-.09-.45-.18-.68-.24-.01,0-.09,.21-.13,.32Z"/>
  <path class="cls-1" d="M518.47,292.15c.21,.78,.42,1.56,.7,2.59,1.56-.24,2.99-.47,4.47-.7,.76,.73,1.52,1.46,2.66,2.55-1.03,.84-1.71,1.76-2.6,2.05-2.84,.93-5.71,1.95-8.65,2.37-10.84,1.56-21.78,1.91-32.72,2-3.68,.03-7.42,.07-11.02,.73-4.51,.83-7.67-1.03-10.47-4.05-1.2-1.3-2.2-2.79-3.24-4.23-3.84-5.31-8.41-9.5-14.94-11.51-3.87-1.19-7.42-3.42-11.1-5.22-.85-.42-1.64-.96-2.27-1.33,2.12-4.32,6.18-4.7,8.9-7.2-2.51-1.49-2.17-3.61-1.4-5.82l-.12,.07c.87,.63,1.75,1.25,2.7,1.93,1.15-.69,2.19-1.31,3.23-1.94l-.06,.13c.88,1.15,1.79,2.28,2.61,3.47,.37,.53,.45,1.62,.84,1.72,4.28,1.05,3.07,4.69,3.63,7.47,0,0,.18-.1,.18-.1l2.58,2.18-.12-.13c1.5,.72,3,1.44,4.51,2.16,.32,1.53,1.36,2.12,2.8,2.59,1.89,.62,3.77,1.47,5.43,2.56,2.47,1.62,4.47,4.07,7.92,3.59,.54-.08,1.17,.6,1.78,.87,2.33,1.05,4.58,2.58,7.02,3.03,8.46,1.56,16.96,2.47,25.52,.2,3.68-.98,7.51-1.36,11.29-1.99,.01,.02-.05-.06-.05-.06Z"/>
  <path class="cls-1" d="M251.92,928.94c1.15-.94,2.3-1.88,3.69-3.01,1.13,1.92,1.55,4.49,4.66,4.88,1.68,.21,1.59,2.33,1.17,3.84-.48,1.73-1.12,3.2,1.17,4.43,.81,.44,.98,2.49,1.04,3.82,.28,5.71,.31,11.43,.62,17.14,.19,3.49-1.06,6.41-3.17,9.33,4.61,3.33,4.17,7.51,2.1,11.92-.46,.99-1.21,1.87-1.52,2.9-.7,2.35-1.2,4.76-1.8,7.21,.21,.03-.01,.05-.04-.01-1.68-4.19-5.45-7.84-5.27-12.34,.15-3.97-1.01-7.08-2.26-10.58-1.27-3.53-1.37-7.48-1.98-11.24-.04-.27-.03-.56-.12-.81-3.17-8.71-1.36-17.79-2-26.69-.14-1.94,.3-3.83,3.38-4.37-.57,1.37-.96,2.32-1.43,3.45,.74,0,1.38,0,2.02,0,.07,.83,.14,1.66,.21,2.49,.23-.06,.45-.11,.68-.17-.38-.73-.77-1.47-1.15-2.2Z"/>
  <path class="cls-1" d="M474.93,144.45c-1.2,.66-2.19,1.21-3.17,1.75,.1,.27,.19,.54,.29,.81,4.04,.22,7.45-2.15,11.2-3.14,3.92-1.03,7.45-2.31,10.47-5.56-.12,1.13,.02,2.35-.39,3.36-2.12,5.3-4.27,10.29-9.45,13.89-3.46,2.41-6.54,3.15-10.44,3.03-1.7-.05-1.17-2.04-2.87-2.02-3.94,.04-7.88-.35-11.82-.64-1.63-.12-3.25-.39-4.86-.63-5.46-.8-8.15-4.57-9.76-9.35-.86-2.56-.35-2.93,2.47-3.75,3.06-.9,6.02-1.6,9.19-.6,.51,.16,1.34-.21,1.84-.58,1.31-.96,2.54-.72,3.84-.07,1.68,.84,3.34,1.21,4.9-.31,.27-.26,.76-.27,1.14-.43,5.35-2.14,6.17-1.7,7.42,4.23Z"/>
  <path class="cls-1" d="M201.28,1018.77c-.81-.96-1.82-1.81-2.4-2.9-.91-1.71-2.09-2.79-4.06-2.96-2.18-.2-3.24-1.66-4.05-3.54-1.67-3.86-3.92-7.53-5.11-11.53-1.31-4.4-1.63-9.08-2.51-13.62-.59-3.03,.36-5.61,1.84-8.12,1.27-2.15,2.51-2.29,4.09-.42,2.51,2.97,4.25,6.35,5.02,10.17,.86,4.27,1.83,8.54,2.37,12.85,.63,5.07,2.15,9.82,4.11,14.48,.67,1.59,1.22,3.24,1.83,4.86-.37,.24-.74,.48-1.12,.73Z"/>
  <path d="M523.81,256.79c-3.41,.04-6.82,.15-10.22,.08-1.31-.03-2.94-.09-3.84-.83-2.57-2.13-5.12-4.03-8.74-3.5-.52-1.98-.92-3.49-1.41-5.34,1.19,.28,2.11,.43,2.98,.72,1.29,.43,2.31,.71,3.79-.11,1.29-.72,3.23-.27,5.31-.36,1.02-.54,2.62-1.25,4.07-2.2,1.21-.79,2.56-1.66,3.3-2.84,2.51-4.01,6.51-5.18,10.7-5.74,2.39-.32,3.88,2.02,3.3,4.47-.4,1.71-.7,3.45-1.19,5.13-.49,1.68-1.17,3.3-1.77,4.97-1.31,1.56-2.62,3.1-3.94,4.65-.78,.3-1.56,.6-2.34,.89Zm4.8-17.42h-.36c0,.21,0,.41,0,.62,.12,0,.33,0,.33-.02,.03-.2,.02-.41,.02-.59Z"/>
  <path class="cls-1" d="M544.7,147.56c.55,.52,1.12,1.51,1.63,1.48,2.1-.14,1.7-2.04,1.81-3.27,.44-.27,.68-.54,.9-.52,3.25,.29,6.35,1.51,9.71,1.38,.97-.04,2,1.47,3,2.26q-2.29-.06-1.96,2.15c.72-.87,1.29-1.56,1.86-2.25,1.22,3.39,1.01,4.17-1.7,5.64-3.64,1.97-7.35,3.47-11.68,3.09-4.34-.38-8.75-.14-13.08-.6-8.82-.93-11.25-3.45-12.73-12.71,.6-.15,1.32-.58,1.84-.42,4.13,1.31,8.23,2.74,12.33,4.13,.13,.04,.29,.04,.39,.12,2.71,2.31,5.23,1.32,7.72-.43l-.05-.05Z"/>
  <path class="cls-1" d="M487.1,458.51c-3.29-1.47-4.65-4.01-5.91-6.51-2.54-5.04-4.07-10.4-4.39-16.07-.56-9.8-1.12-19.61-1.65-29.41-.07-1.33-.01-2.68-.01-4.02l.92-.21c1.2,3.46,2.79,6.83,3.51,10.38,1.32,6.54,2.06,13.18,3.16,19.77,1.23,7.39,2.59,14.75,3.87,22.13,.23,1.3,.34,2.62,.51,3.94Z"/>
  <path class="cls-1" d="M179.28,995.61c-5.52-4.05-9.55-18.65-4.03-26.12,.64,.61,1.58,1.08,1.79,1.77,.99,3.38,2.19,6.77,2.56,10.23,.46,4.31,.19,8.71,.2,13.06,0,.35-.33,.69-.51,1.05Z"/>
  <path class="cls-1" d="M389.89,182.31c-.76,2.27-.72,4.68-1.63,7.03-.66,1.71,.05,4.3-.67,6.52-.71,2.19-1.75,3.92-4.02,4.74-1.22-3.37,1.01-17.18,4.23-26.08,.64,1.95,1.2,3.67,1.77,5.37,0,0,.01-.05,.01-.05l-1.41,1.61c.61,.33,1.23,.65,1.84,.98l-.12-.11Z"/>
  <path class="cls-1" d="M790.73,1043.71c2.85,1.7,3.06,3.77,2.96,5.55-.29,5.18-.15,10.5-3.29,15.14-.35-6.73-2.13-13.48,.33-20.69Z"/>
  <path class="cls-1" d="M577.35,142.33c-.05,.05-.11,.11-.17,.17-.63-.51-1.82-1.03-1.81-1.53,.04-2.59,.41-5.15,3-6.67,.81-.48,1.58-1.04,2.34-1.59,1.41-1.02,2.75-1.11,3.92,.33,1.05,1.29,.6,2.71-1.1,4.11-2.08,1.7-4.12,3.45-6.18,5.18Z"/>
  <path class="cls-1" d="M476.17,114.43c-.09,.82,.05,1.76-.31,2.41-.47,.85-1.25,1.83-2.09,2.08-.52,.15-1.67-.82-2.06-1.54-.49-.92-.67-2.1-.66-3.16,.01-1.79,1.52-3.41,2.91-3.42,1.56-.01,2.35,1.27,2.21,3.63Z"/>
  <path class="cls-1" d="M220.49,1020.1c3.25,.78,4.69,2.17,4.97,4.47,.16,1.28,.05,2.54-1.56,2.81-1.4,.23-3.05-1.09-3.11-2.48-.04-.8,.19-1.61,.17-2.41-.02-.65-.24-1.28-.47-2.39Z"/>
  <path class="cls-1" d="M519.64,116.09c1.17-.86,2.28-1.82,3.54-2.51,.4-.22,1.41,.1,1.76,.5,.33,.38,.35,1.28,.15,1.81-.38,.99-.85,2.05-1.59,2.77-.68,.66-1.83,1.36-2.66,1.24-1.31-.18-1.93-1.33-1.45-2.77,.13-.38,.23-.77,.35-1.15,0,0-.09,.12-.09,.12Z"/>
  <path class="cls-1" d="M263.77,987.91c3.75,1.88,.39,6.46,4.32,8.11-2.05,1.1-3.3,.67-4.35-.47-1.19-1.29-1.18-4.01,.04-7.64Z"/>
  <path class="cls-1" d="M625.96,476.4c-.63-.82-1.63-1.57-1.81-2.48-.31-1.55-.39-3.32,1.44-4.25,1.88-.96,3.46-.25,4.73,1.12,.71,.78,1.13,1.83,1.68,2.75-2.39,.22-3.91,2.01-5.75,3.22,0-.21-.09-.33-.3-.36,.29-1.87,.58-3.75,.88-5.67-1.63,.14-2.26,1.2-2,2.71,.18,1.02,.73,1.98,1.12,2.96Z"/>
  <path class="cls-1" d="M481.91,127.44c-2.27,.95-3.98,1.67-5.7,2.39l-.59-.82c1.07-1.22,2.15-2.44,3.36-3.82,.94,.72,1.63,1.25,2.92,2.25Z"/>
  <path class="cls-1" d="M431.55,112.51c2.08-2.11,.73-5.55,4.17-6.09q-.86,5.7-4.17,6.09Z"/>
  <path class="cls-1" d="M449.79,277.15s-.18,.09-.18,.1c2.64-1.81,2.98-1.8,5.06,.12,1.21,1.11,2.3,2.27,2.03,4.11-1.49-.76-2.97-1.52-4.45-2.28,0,0,.12,.13,.12,.13,.32-2.13-1.38-1.86-2.58-2.18Z"/>
  <path class="cls-1" d="M771.58,1085.55s-.13-.09-.13-.08c-.57,1.59-1.15,3.19-1.72,4.78-.33,0-.67,.01-1,.02-.37-1.17-1.29-2.5-.99-3.46,.53-1.69,2.3-1.55,3.83-1.26Z"/>
  <path class="cls-1" d="M436.77,264.38c-.43-.58-.86-1.16-1.29-1.75,.63-.42,1.24-1.16,1.9-1.22,2.4-.19,3.99,1.19,5.14,3.16,0,0,.06-.13,.06-.13-1.98,0-3.95,0-5.93,0l.12-.07Z"/>
  <path class="cls-1" d="M749.6,1078.51c1.76-.3,3.37-2.01,5.58-.63-1.72,2.48-3.68,1.58-5.58,.63Z"/>
  <path class="cls-1" d="M472.66,106.38c3.2-1.06,6.1-.75,9.1,.66-4.31,1.29-5.98,1.17-9.1-.66Z"/>
  <path class="cls-1" d="M531.79,128.15c-1.66,.21-3.16,.41-4.9,.63-.07-1.97,1.17-2.78,2.58-3,1.38-.22,2.13,.77,2.32,2.37Z"/>
  <path d="M626.26,476.76c1.84-1.21,3.35-3,5.75-3.22l-.67,2.26c-1.53,1.14-3.13,1.83-5.01,.84l-.07,.12Z"/>
  <path d="M238.9,952.5c-2.01,.56-3.08,.01-2.91-2.46,2.04,0,2.36,1.4,2.87,2.6,0,0,.04-.15,.04-.15Z"/>
  <path class="cls-1" d="M449.72,94.64c.17,.22,.33,.44,.5,.66q.24,1.65-.87,3.24c-.3-.87-.54-1.54-.77-2.2l.1,.04c.35-.58,.7-1.15,1.05-1.73Z"/>
  <path class="cls-1" d="M526.15,255.9c1.31-1.54,2.63-3.09,3.94-4.65,0-.02-.05-.11-.05-.13q-.24,3.75-3.89,4.77Z"/>
  <path class="cls-1" d="M388.75,197.19c1.56-.42,2.5-.68,4.23-1.14-1.22,2.2-2.04,2.89-4.23,1.14Z"/>
  <path d="M625.96,476.4c-.39-.99-.94-1.94-1.12-2.96-.26-1.51,.37-2.56,2-2.71-.3,1.93-.59,3.8-.88,5.67,0,0,0,0,0,0Z"/>
  <path class="cls-1" d="M426,138.02v4.82c-1.62-1.63-.81-3.22,0-4.82Z"/>
  <path class="cls-1" d="M217.48,965.19s-.19,.15-.19,.14c1.73,1.29,.86,2.76,.49,4.93-1.59-2.13-.59-3.61-.31-5.07Z"/>
  <path class="cls-1" d="M463.75,128.08c.66,.54,1.33,1.07,1.99,1.61-.17,.21-.34,.43-.51,.64-.67-.52-1.35-1.05-2.02-1.57,.18-.23,.36-.45,.53-.68Z"/>
  <path class="cls-1" d="M389.57,179.84s0,.04-.01,.05c1.12-.06,2.27,.05,2.18,1.5-.02,.35-1.2,.62-1.85,.93,0,0,.12,.11,.12,.11-.14-.86-.29-1.73-.43-2.59Z"/>
  <path class="cls-1" d="M240,1003.62c-.67,.31-1.16,.73-1.5,.64-.35-.1-.86-.92-.77-1.05,.31-.43,.85-.68,1.3-1.01,.27,.39,.54,.78,.98,1.42Z"/>
  <path d="M553.33,218.36c-.57,.13-1.14,.26-1.72,.39-.04-.23-.07-.47-.11-.7,.57-.02,1.14-.03,1.71-.05-.03,.1,.01,.22,.12,.36Z"/>
  <path class="cls-1" d="M518.25,159.82c-.19-.6-.39-1.21-.54-1.82-.01-.05,.59-.31,.61-.28,.34,.55,.63,1.12,.94,1.69-.34,.14-.67,.28-1.01,.42Z"/>
  <path class="cls-1" d="M539.3,141.7c.6,1.27,.92,1.78,1.06,2.33,.03,.13-.53,.41-.82,.62-.33-.47-.75-.91-.94-1.44-.09-.25,.28-.66,.7-1.52Z"/>
  <path class="cls-1" d="M626.33,476.65c1.88,.99,3.48,.3,5.01-.84-1.44,3.48-2.4,3.64-5.01,.84Z"/>
  <path d="M507.55,275.68c-.38-.8-.76-1.61-1.13-2.41l.82-.16c.05,.84,.1,1.68,.15,2.52,0,0,.16,.05,.16,.05Z"/>
  <path class="cls-1" d="M185.95,944.21c-.51,.47-.85,.77-1.18,1.08-.22-.29-.62-.59-.61-.87,.01-.31,.35-.73,.65-.86,.18-.08,.56,.3,1.14,.65Z"/>
  <path class="cls-1" d="M383.39,211.87c.2-.74,.41-1.48,.61-2.22,.23,.03,.47,.06,.7,.09,.05,.43,.29,1.06,.1,1.26-.37,.39-1,.53-1.52,.77,0,0,.11,.1,.11,.1Z"/>
  <path class="cls-1" d="M437.93,102.09c-.39,.41-.71,.92-.85,.87-.4-.13-.81-.43-1.04-.78-.09-.14,.41-.87,.48-.85,.44,.15,.84,.43,1.4,.76Z"/>
  <path class="cls-1" d="M552.36,214.78s.11,.1,.11,.1c.99-.99,1.99-1.98,2.98-2.97,0,0-.09-.12-.09-.12-.3,1.7-.89,3.11-3,2.99Z"/>
  <path class="cls-1" d="M586.9,171.55c.04-.71,.08-1.41,.11-2.12,.23-.01,.45-.03,.68-.04l.21,2.13c-.34,0-.67,.02-1.01,.03Z"/>
  <path d="M251.92,928.94c.38,.73,.77,1.47,1.15,2.2-.23,.06-.45,.11-.68,.17-.07-.83-.14-1.66-.21-2.49,0,0-.27,.12-.27,.12Z"/>
  <path class="cls-1" d="M222.29,973.46c-.11,.21-.22,.41-.33,.62l-.75-.56c.17-.16,.34-.43,.52-.44,.18-.01,.37,.24,.56,.38Z"/>
  <path class="cls-1" d="M517.03,166.8c-.26-.48-.49-.74-.52-1.02-.02-.17,.33-.55,.43-.52,.29,.08,.54,.32,.81,.49-.19,.28-.38,.55-.72,1.05Z"/>
  <path class="cls-1" d="M544.74,147.62c-.2-1.05-.4-2.1-.61-3.15,.38,0,.76,0,1.13,0-.2,1.02-.4,2.03-.59,3.07,.01,.02,.06,.07,.06,.07Z"/>
  <path class="cls-1" d="M477.16,276.14s-.31,.05-.31,.04c.31,.61,.62,1.23,.93,1.84-.24,.04-.49,.08-.73,.12,.04-.67,.07-1.33,.11-2Z"/>
  <path class="cls-1" d="M501,276.47c-.14-.07-.23-.18-.28-.34-.07,.56-.14,1.12-.09,.7-.34,.33,.02-.02,.37-.36Z"/>
  <path d="M452.25,279.2c1.48,.76,2.96,1.52,4.45,2.28,0,0,.05-.12,.05-.12-1.5-.72-3-1.44-4.5-2.16Z"/>
  <path class="cls-1" d="M441.84,102.26c-.05-.54-.11-1.09-.16-1.63,.21-.03,.42-.05,.63-.08,.08,.53,.16,1.06,.25,1.59-.24,.04-.47,.08-.71,.12Z"/>
  <path class="cls-1" d="M559.15,175.31s.21,.22,.21,.22c-.29-1.12-.59-2.25-.89-3.38h-.01c.58,.98,1.85,1.8,.69,3.15Z"/>
  <path class="cls-1" d="M560.74,161.23c-.12,.2-.22,.52-.38,.57-.19,.05-.44-.15-.67-.24,.12-.2,.21-.54,.37-.57,.2-.05,.45,.15,.68,.25Z"/>
  <path class="cls-1" d="M518.47,292.15s.06,.08,.05,.06c.91,.05,1.82,.12,2.83,.2-1.19,1.52-2,.33-2.88-.26Z"/>
  <path class="cls-1" d="M761.37,1065.5c.17,.15,.48,.3,.48,.45,0,.19-.25,.37-.4,.56-.23-.2-.45-.4-.68-.6,.2-.14,.4-.28,.59-.41Z"/>
  <path class="cls-1" d="M558.47,172.15c1.03-.09,2.07-.17,3.1-.26l.02,.4c-1.04-.05-2.08-.1-3.12-.15,0,0,0,0,0,0Z"/>
  <path class="cls-1" d="M448.57,96.33c-.81,.35-1.61,.71-2.42,1.06l-.13-.45c.87-.2,1.74-.39,2.63-.58,.01,0-.08-.03-.08-.03Z"/>
  <path class="cls-1" d="M541.63,84.46l.21-.13c.15-.17,.3-.32,.47-.47,0,0,.02,0,.02,0-.23,.2-.46,.4-.7,.6Z"/>
  <path d="M610.72,184.56c-4.58,1.11-6.56,.24-7.1-3.31,2.39,1.11,4.48,2.09,7.1,3.31Z"/>
  <path d="M598.91,181.72c-.58-.53-1.38-.95-1.71-1.61-1.4-2.77-2.65-5.6-4.19-8.9,1.8,.57,2.22,1.87,2.9,2.86,.85,1.22,1.87,2.39,2.41,3.74,.48,1.19,.41,2.6,.57,3.94-.01,.02,.02-.03,.02-.03Z"/>
  <path d="M581.04,150.3c.14-1.37,.28-2.74,.42-4.12,2.12,1.68,1.03,3.03-.42,4.12Z"/>
  <path d="M599.84,186.95c1.19,.59,2.37,1.17,1.75,3.08-.57-1.06-1.14-2.11-1.71-3.17l-.04,.09Z"/>
  <path d="M599.88,186.86c-.33-1.7-.66-3.41-.98-5.13,0-.01-.02,.03,0,.01,.33,1.71,.65,3.44,.96,5.19,0,.01,.03-.08,.03-.08Z"/>
  <path d="M408.47,233.8c-.63,.06-1.25,.12-1.88,.18,.01-.15,.02-.31,.03-.46,.62,.1,1.24,.21,1.88,.32,.01,.01-.03-.04-.03-.04Z"/>
  <path d="M491.65,213.52c-1.43-1.8-2.89-3.39-5.09-4.48-2.26-1.13-4.14-3.08-6.08-4.8-2.18-1.93-2.16-2.96-.11-5.02,2.79-2.81,5.63-5.56,8.37-8.41,.74-.77,1.02-2.29,1.84-2.61,3.54-1.39,4.96-5.66,9.37-6.47-.54,1.39-.99,2.55-1.42,3.66,.19,.21,.4,.59,.55,.57,2.16-.31,4.39-1.21,6.43-.9,2.63,.41,4.13-.66,5.64-2.36,.34-.38,.98-.9,1.34-.81,2.82,.75,6.13,0,8.38,2.52,1.36,1.52,2.69,3.1,3.8,4.81,1.89,2.9,3.74,5.63,7.62,6.14,1.01,.13,1.88,1.34,3.3,2.43-1.45,.56-2.27,.88-3.28,1.27-.57,5.08-4.53,10.02-.85,15.29-.63,2.4-1.22,4.61-1.9,7.17-2.41-1.75,.2-6.06-4.15-6.55-3.5,3.13-8.36,1.39-12.8,1.91-5.09,.6-10.32,.03-15.48-.05-2.63-.04-4.18-1.76-5.6-3.67,.47,.18,.94,.36,.6,.22,.41-.12-.03,0-.47,.13Zm24.4-19.34c-4.33-3.41-9.03-4.08-14-2.62-1.44,.42-3.53,.93-3.16,3.1,.33,1.89,2.29,1.84,3.68,1.76,2.97-.16,5.89-.53,8.84,.36,.59,.18,1.5-.42,2.17-.81,.79-.45,1.49-1.06,2.47-1.78Zm-18.49,11.3c3.82,2.22,9.95,2.83,14.68,1.79,.74-.16,1.34-.98,2.66-1.99-1.68-.34-2.52-.61-3.37-.66-1.7-.11-3.65,.42-5.04-.25-2.03-.99-3.97-.48-5.92-.51-.82-.01-1.65,.85-3.01,1.63Zm11.44-8.39c-1.65,.29-2.67,.47-3.68,.65,.13,.49,.12,1.26,.42,1.41,1.17,.6,2.27,.52,3.27-2.06Z"/>
  <path d="M489.12,164.7c1.16-1.4,2.12-1.31,3.21,.19,.83,1.14,1.79,2.43,3,3,3.86,1.82,4.14,2.95,.99,6.42-1.9-1.86-3.98-3.58-5.64-5.64-.86-1.07-1-2.72-1.47-4.1,0,0-.08,.12-.08,.12Z"/>
  <path d="M533.76,210.37c-.4,.39-.79,.77-1.19,1.16-.21-.24-.41-.49-.62-.73l1.37-.96c.15,.18,.29,.35,.44,.53Z"/>
  <path d="M490.83,178.36c.23-.61,.47-1.22,.7-1.83l.7,.26c-.24,.61-.48,1.22-.72,1.84-.22-.09-.45-.17-.67-.26Z"/>
  <path d="M555.45,211.91c-.99,.99-1.99,1.98-2.98,2.97,.06-3.01,.11-3.06,2.98-2.97Z"/>
  <path class="cls-1" d="M491.65,213.52c.44-.12,.89-.25,.47-.13,.35,.13-.12-.05-.6-.22,.13,.09,.17,.21,.12,.36Z"/>
  <path d="M554.65,177.47c-.11-.21-.33-.43-.3-.62,.03-.2,.29-.37,.45-.56,.11,.2,.33,.42,.3,.6-.04,.21-.29,.39-.45,.58Z"/>
  <path d="M363.5,436.87c-.25-13.75,.79-27.01,1.94-40.73,7.27,.46,14.37-.36,21.14,2.27,4.66,1.81,7.63,5.37,8.77,10.12,.75,3.13,1.04,6.49,.87,9.71-.32,6.13-3.35,10.93-8.66,14.03-7.34,4.29-15.47,4.58-24.06,4.6Z"/>
  <path d="M541.83,84.33c-1.03-.21-2.06-.43-3.43-.71,.52-1.03,.95-1.91,1.57-3.15,.96,1.4,1.64,2.4,2.33,3.39-.17,.15-.32,.3-.47,.47Z"/>
  <path d="M484.69,28.2c2.9-.68,5.77-1.53,8.7-1.98,4.58-.71,9.2-1.21,13.82-1.67,1.42-.14,2.88,.13,5.28,.27-2.06,2.1-3.45,3.52-4.84,4.94-1.89,1.93-4.08,3.54-4.89,6.42-.28,1-1.89,1.61-3.25,2.08,1.77-4.6,6.3-7.25,8.51-12.31-5.16-.4-9.75-.74-13.66,2.75-3.17-2.82-6.54-.25-9.77-.58,0,0,.1,.08,.1,.08Z"/>
  <path d="M527.87,41.02v3.29c1.39,.31,2.66,.6,4.17,.94-.72,1.25-1.31,2.26-2.02,3.48-1.92-.37-4.48,.66-5.38-2.26-.76-2.49,.22-4.13,3.22-5.46Z"/>
  <path d="M520.37,30.43c-.82,1.03-1.6,2.09-2.47,3.08-.87,.99-1.83,1.9-2.97,3.08,2.48,1.72,5.2,1.32,7.41,2.58-3.58,.95-6.9-.89-11.04-.6,2.72-3.87,5.61-6.35,9.18-8.05l-.1-.09Z"/>
  <path d="M521.27,34.36c1.86-1.87,3.67-3.8,5.61-5.59,.96-.89,1.97-.69,2.74,.76-2.31,2.2-4.27,4.9-7.61,5.74-.25-.3-.5-.6-.74-.91Z"/>
  <path d="M462.35,45.1c.59-1.37,1.18-2.74,1.85-4.3,1.26,1.46,2.23,2.59,3.51,4.08-1.63,.41-3.07,.78-4.51,1.14-.28-.31-.57-.62-.85-.92Z"/>
  <path d="M535.61,42.28c-.34-2.03,.28-3.65,1.88-5.01,1.5-1.28,2.83-2.77,4.25-4.15,.04-.04,.23,.08,.7,.27-.65,1.96-2.38,3.03-3.61,4.48-1.19,1.41-2.21,2.97-3.3,4.46,0,0,.08-.05,.08-.05Z"/>
  <path d="M535.29,30.6c-2.62,2.13-5.16,4.19-8.19,6.66,1.92-3.84,5.27-6.44,8.19-6.66Z"/>
  <path d="M484.58,28.11c-1.44,1.21-2.88,2.41-4.53,3.8-.78-.64-1.64-1.33-3.14-2.56,3.02-.45,5.39-.81,7.77-1.16,0,0-.1-.08-.1-.08Z"/>
  <path d="M542.76,42.33c2.11-1.98,4.22-3.97,6.7-6.31-.68,4.43-3.84,5.24-6.77,6.3h.06Z"/>
  <path d="M520.47,30.52c-.1-.66-.41-1.38-.25-1.98,.46-1.78,1.46-2.39,3.65-.73-1.33,1-2.41,1.81-3.5,2.62,0,0,.1,.09,.1,.09Z"/>
  <path d="M550.42,46.97c1.22-1.21,2.41-2.39,3.73-3.71,.92,.66,.44,1.62-.24,2.46-.98,1.22-2.15,1.95-3.49,1.25Z"/>
  <path d="M534.01,45.8c.51,1.23,.94,2.27,1.37,3.31-.17,.16-.35,.32-.52,.48-.59-.31-1.45-.48-1.72-.97-.48-.89-.69-2,.88-2.82Z"/>
  <path d="M534.78,35.71c-.75,.87-1.51,1.74-2.26,2.61-.26-.25-.52-.51-.77-.76,.81-.77,1.61-1.55,2.42-2.32,.2,.16,.41,.32,.61,.48Z"/>
  <path d="M542.7,42.33c.53,.73,1.05,1.47,1.66,2.32-2.43,.2-1.62-1.25-1.58-2.3-.02-.01-.09-.02-.09-.02Z"/>
  <path d="M535.53,42.33h3.5c-.02,.25-.03,.51-.05,.76-1.11-.28-2.22-.56-3.35-.82-.02,.01-.1,.06-.1,.06Z"/>
  <path d="M473.62,36.12c-.39,.43-.78,.85-1.16,1.28-.23-.2-.47-.41-.7-.61,.35-.46,.7-.93,1.04-1.39,.27,.24,.55,.48,.82,.73Z"/>
  <path d="M417.35,142.53c.05-.11,.12-.32,.13-.32,.23,.07,.45,.16,.68,.24-.07,.17-.15,.35-.22,.52-.2-.15-.39-.3-.59-.45Z"/>
  <path d="M436.65,264.46c1.98,0,3.95,0,5.93,0-1.04,.63-2.08,1.25-3.23,1.94-.95-.68-1.83-1.31-2.7-1.93Z"/>
  <path d="M449.79,277.15c1.2,.32,2.9,.05,2.58,2.18-.86-.73-1.72-1.45-2.58-2.18Z"/>
  <path class="cls-1" d="M528.61,239.37c0,.19,.01,.39-.02,.59,0,.02-.22,.02-.33,.02,0-.21,0-.41,0-.62h.36Z"/>
  <path d="M561.65,148.79c-.57,.69-1.14,1.37-1.86,2.25q-.33-2.21,1.96-2.15s-.1-.1-.1-.1Z"/>
  <path d="M389.57,179.84c.14,.86,.29,1.73,.43,2.59-.61-.33-1.23-.65-1.84-.98l1.41-1.61Z"/>
  <path class="cls-1" d="M516.06,194.18c-.98,.72-1.68,1.33-2.47,1.78-.68,.39-1.58,.99-2.17,.81-2.95-.89-5.87-.52-8.84-.36-1.39,.08-3.35,.13-3.68-1.76-.38-2.17,1.72-2.68,3.16-3.1,4.98-1.45,9.67-.79,14,2.62Z"/>
  <path class="cls-1" d="M497.57,205.49c1.37-.77,2.2-1.64,3.01-1.63,1.95,.03,3.88-.48,5.92,.51,1.39,.67,3.34,.15,5.04,.25,.85,.05,1.69,.32,3.37,.66-1.32,1.02-1.92,1.83-2.66,1.99-4.73,1.04-10.86,.43-14.68-1.79Z"/>
  <path class="cls-1" d="M509.01,197.1c-1,2.58-2.09,2.66-3.27,2.06-.3-.15-.29-.92-.42-1.41,1.01-.18,2.03-.36,3.68-.65Z"/>
</svg>